<?xml version="1.0" encoding="UTF-8" standalone="no"?>
<svg
   xmlns:dc="http://purl.org/dc/elements/1.1/"
   xmlns:cc="http://creativecommons.org/ns#"
   xmlns:rdf="http://www.w3.org/1999/02/22-rdf-syntax-ns#"
   xmlns:svg="http://www.w3.org/2000/svg"
   xmlns="http://www.w3.org/2000/svg"
   viewBox="0 0 90.116349 62.265571"
   height="62.265572"
   width="90.116348"
   xml:space="preserve"
   id="svg2"
   version="1.1"><metadata
     id="metadata8"><rdf:RDF><cc:Work
         rdf:about=""><dc:format>image/svg+xml</dc:format><dc:type
           rdf:resource="http://purl.org/dc/dcmitype/StillImage" /></cc:Work></rdf:RDF></metadata><defs
     id="defs6" /><g
     transform="matrix(1.3333333,0,0,-1.3333333,-4.180433e-4,62.26557)"
     id="g10"><g
       transform="scale(0.1)"
       id="g12"><path
         id="path14"
         style="fill:#050606;fill-opacity:1;fill-rule:nonzero;stroke:none"
         d="m 110.43,167.723 c 8.105,0 14.687,6.582 14.687,14.699 0,8.105 -6.582,14.687 -14.687,14.687 -8.106,0 -14.6878,-6.582 -14.6878,-14.687 0,-8.117 6.5818,-14.699 14.6878,-14.699" /><path
         id="path16"
         style="fill:#050606;fill-opacity:1;fill-rule:nonzero;stroke:none"
         d="m 125.117,89.4805 c 8.106,0 14.688,6.5742 14.688,14.6915 0,8.101 -6.582,14.683 -14.688,14.683 -8.105,0 -14.687,-6.582 -14.687,-14.683 0,-8.1173 6.582,-14.6915 14.687,-14.6915" /><path
         id="path18"
         style="fill:#050606;fill-opacity:1;fill-rule:nonzero;stroke:none"
         d="m 169.539,211.473 c 8.117,0 14.699,6.582 14.699,14.699 0,8.105 -6.582,14.687 -14.699,14.687 -8.113,0 -14.684,-6.582 -14.684,-14.687 0,-8.117 6.571,-14.699 14.684,-14.699" /><path
         id="path20"
         style="fill:#050606;fill-opacity:1;fill-rule:nonzero;stroke:none"
         d="m 262.91,104.172 c 8.106,0 14.688,6.57 14.688,14.683 0,8.11 -6.582,14.692 -14.688,14.692 -8.113,0 -14.687,-6.582 -14.687,-14.692 0,-8.113 6.574,-14.683 14.687,-14.683" /><path
         id="path22"
         style="fill:#050606;fill-opacity:1;fill-rule:nonzero;stroke:none"
         d="m 219.871,281.348 c 8.117,0 14.699,6.582 14.699,14.687 0,8.106 -6.582,14.688 -14.699,14.688 -8.113,0 -14.683,-6.582 -14.683,-14.688 0,-8.105 6.57,-14.687 14.683,-14.687" /><path
         id="path24"
         style="fill:#050606;fill-opacity:1;fill-rule:nonzero;stroke:none"
         d="m 364.18,61.9805 c 8.117,0 14.687,6.5742 14.687,14.6914 0,8.1015 -6.57,14.6836 -14.687,14.6836 -8.106,0 -14.688,-6.5821 -14.688,-14.6836 0,-8.1172 6.582,-14.6914 14.688,-14.6914" /><path
         id="path26"
         style="fill:#050606;fill-opacity:1;fill-rule:nonzero;stroke:none"
         d="m 339.824,231.289 c 8.114,0 14.696,6.582 14.696,14.688 0,8.105 -6.582,14.687 -14.696,14.687 -8.105,0 -14.687,-6.582 -14.687,-14.687 0,-8.106 6.582,-14.688 14.687,-14.688" /><path
         id="path28"
         style="fill:#050606;fill-opacity:1;fill-rule:nonzero;stroke:none"
         d="m 310.449,382.813 c 8.114,0 14.696,6.582 14.696,14.687 0,8.113 -6.582,14.688 -14.696,14.688 -8.105,0 -14.687,-6.575 -14.687,-14.688 0,-8.105 6.582,-14.687 14.687,-14.687" /><path
         id="path30"
         style="fill:#050606;fill-opacity:1;fill-rule:nonzero;stroke:none"
         d="m 323.242,104.172 c 8.113,0 14.696,6.57 14.696,14.683 0,8.11 -6.583,14.692 -14.696,14.692 -8.105,0 -14.687,-6.582 -14.687,-14.692 0,-8.113 6.582,-14.683 14.687,-14.683" /><path
         id="path32"
         style="fill:#050606;fill-opacity:1;fill-rule:nonzero;stroke:none"
         d="m 506.68,138.348 c 8.117,0 14.687,6.582 14.687,14.699 0,8.105 -6.57,14.687 -14.687,14.687 -8.106,0 -14.688,-6.582 -14.688,-14.687 0,-8.117 6.582,-14.699 14.688,-14.699" /><path
         id="path34"
         style="fill:#050606;fill-opacity:1;fill-rule:nonzero;stroke:none"
         d="m 169.539,153.035 c 8.117,0 14.699,6.582 14.699,14.699 0,8.106 -6.582,14.688 -14.699,14.688 -8.113,0 -14.684,-6.582 -14.684,-14.688 0,-8.117 6.571,-14.699 14.684,-14.699" /><path
         id="path36"
         style="fill:#050606;fill-opacity:1;fill-rule:nonzero;stroke:none"
         d="m 531.453,89.4805 c 8.11,0 14.692,6.5742 14.692,14.6915 0,8.101 -6.582,14.683 -14.692,14.683 -8.113,0 -14.683,-6.582 -14.683,-14.683 0,-8.1173 6.57,-14.6915 14.683,-14.6915" /><path
         id="path38"
         style="fill:#050606;fill-opacity:1;fill-rule:nonzero;stroke:none"
         d="m 248.223,47.2969 c 8.105,0 14.687,6.5703 14.687,14.6836 0,8.1093 -6.582,14.6914 -14.687,14.6914 -8.106,0 -14.688,-6.5821 -14.688,-14.6914 0,-8.1133 6.582,-14.6836 14.688,-14.6836" /><path
         id="path40"
         style="fill:#050606;fill-opacity:1;fill-rule:nonzero;stroke:none"
         d="m 323.242,167.723 c 8.113,0 14.696,6.582 14.696,14.699 0,8.105 -6.583,14.687 -14.696,14.687 -8.105,0 -14.687,-6.582 -14.687,-14.687 0,-8.117 6.582,-14.699 14.687,-14.699" /><path
         id="path42"
         style="fill:#050606;fill-opacity:1;fill-rule:nonzero;stroke:none"
         d="m 229.551,25 h 220.547 l 36.32,37.8203 c 2.352,2.461 5.602,3.8516 9.012,3.8516 h 140.761 l 12.547,47.6441 -38.496,19.95 c -1.211,0.636 -2.304,1.464 -3.25,2.445 l -50.539,52.637 c -2.223,2.324 -3.473,5.425 -3.473,8.648 v 46.399 l -50.312,11.601 c -4.172,0.957 -7.563,3.992 -8.984,8.047 l -30.391,86.523 H 447.59 c -4.055,0 -7.832,1.954 -10.18,5.243 l -43.64,61.242 h -21.622 c -2.304,0 -4.55,0.644 -6.511,1.836 l -36.926,22.519 -38.965,-6.476 -19.285,-45.332 c -0.949,-2.215 -2.5,-4.11 -4.492,-5.45 l -87.102,-58.972 -3.039,-38.465 c -0.437,-5.578 -4.527,-10.188 -10.027,-11.281 l -32.012,-6.36 -65.1952,-90.554 11.7773,-32.383 c 1.7773,-4.856 0.3711,-10.285 -3.5156,-13.684 L 30.7813,92.1367 56.2617,66.6719 H 184.23 c 3.407,0 6.661,-1.3906 9.012,-3.8516 z M 455.43,0 h -231.2 c -3.41,0 -6.664,1.38672 -9.015,3.83984 L 178.895,41.6719 H 51.0742 c -3.3008,0 -6.4844,1.3047 -8.8281,3.6601 L 3.65234,83.9063 C 1.21094,86.3555 -0.117188,89.707 0.0117188,93.1641 0.125,96.6211 1.66797,99.8828 4.26953,102.156 L 53.9453,145.637 42.832,176.191 c -1.4179,3.875 -0.8007,8.211 1.6016,11.571 l 71.9454,99.914 c 1.844,2.558 4.605,4.344 7.703,4.961 l 27.566,5.468 2.766,35.02 c 0.305,3.789 2.305,7.246 5.449,9.375 l 89.032,60.273 20.519,48.262 c 1.68,3.934 5.254,6.738 9.473,7.442 l 50.332,8.339 c 2.929,0.508 5.996,-0.097 8.535,-1.66 l 37.898,-23.105 h 24.551 c 4.055,0 7.844,-1.953 10.188,-5.235 l 43.632,-61.25 h 18.125 c 5.301,0 10.04,-3.339 11.797,-8.359 l 31.043,-88.398 53.305,-12.305 c 5.66,-1.309 9.687,-6.348 9.687,-12.168 v -51.309 l 45.606,-47.511 45.547,-23.602 c 5.191,-2.703 7.808,-8.633 6.336,-14.285 L 657.922,50.9766 c -1.457,-5.4883 -6.43,-9.3047 -12.094,-9.3047 H 500.762 L 464.434,3.83984 C 462.09,1.38672 458.84,0 455.43,0" /><path
         id="path44"
         style="fill:#050606;fill-opacity:1;fill-rule:nonzero;stroke:none"
         d="m 495.438,41.6602 c -4.801,0 -9.375,2.7734 -11.446,7.4336 l -20,45 c -2.793,6.3042 0.039,13.6872 6.36,16.4922 6.32,2.844 13.691,-0.039 16.503,-6.348 l 20,-44.9997 c 2.801,-6.3008 -0.039,-13.6914 -6.347,-16.4961 -1.653,-0.7305 -3.379,-1.082 -5.07,-1.082" /><path
         id="path46"
         style="fill:#050606;fill-opacity:1;fill-rule:nonzero;stroke:none"
         d="m 184.219,41.6602 c -1.778,0 -3.594,0.3906 -5.313,1.1992 -6.25,2.9414 -8.926,10.3828 -5.996,16.6328 l 49.551,105.3128 c 1.465,3.093 4.121,5.457 7.375,6.535 l 33.152,11.031 9.551,61.777 c 1.055,6.829 7.441,11.457 14.258,10.45 6.816,-1.063 11.504,-7.45 10.449,-14.266 l -10.723,-69.324 c -0.703,-4.629 -3.957,-8.481 -8.398,-9.953 L 242.813,149.305 195.535,48.8398 c -2.129,-4.5234 -6.621,-7.1796 -11.316,-7.1796" /></g></g></svg>