<svg xmlns="http://www.w3.org/2000/svg" height="61.327" width="63.475">
  <g fill="none" stroke="#13498e" stroke-width="20" stroke-miterlimit="10">
    <path d="M3.327 24.691a4.001 4.001 0 0 0-1.464 5.465l2 3.464 4.62-2.667M49.885 33.332l3.952 6.847" stroke-width="2.6666"/>
    <path d="M34.077 59.285a5.334 5.334 0 0 1-7.285-1.953l-18-31.177a4 4 0 0 0-5.465-1.464l10.82-6.246 16.894-9.754a4 4 0 0 1 5.463 1.464l4.143 7.178" stroke-width="2.6666"/>
    <path d="M36.03 51.998l-.668-1.154 25.405-14.667.667 1.155a5.335 5.335 0 0 1-1.953 7.285L34.077 59.284a5.333 5.333 0 0 0 1.952-7.286z" stroke-width="2.6666"/>
    <path d="M44.815 33.333L47.482 28l5.333-2.667-5.333-2.666-2.667-5.334-2.667 5.334-5.333 2.666L42.148 28zM50.148 14.667l2.223-4.445L56.815 8l-4.444-2.223-2.223-4.444-2.222 4.444L43.482 8l4.444 2.222zM58.148 14.667v2.666M58.148 20v2.667M56.815 18.667h-2.667M62.148 18.667h-2.666" stroke-linejoin="round" stroke-width="2.6666"/>
  </g>
</svg>