<svg xmlns="http://www.w3.org/2000/svg" height="40.009" width="40.01">
  <path d="M20.823.118C9.755-.342.57 8.208.117 19.187a19.77 19.77 0 0 0 5.248 14.302 19.774 19.774 0 0 0 14.653 6.42 19.848 19.848 0 0 0 19.875-19.086A19.788 19.788 0 0 0 34.646 6.52 19.776 19.776 0 0 0 20.823.118M38.875 20.78A18.842 18.842 0 0 1 19.23 38.876a18.766 18.766 0 0 1-13.117-6.077 18.76 18.76 0 0 1-4.976-13.57A18.83 18.83 0 0 1 19.99 1.118a18.76 18.76 0 0 1 13.905 6.093 18.764 18.764 0 0 1 4.98 13.57" fill="#13498e"/>
  <path d="M20.823.118C9.755-.342.57 8.208.117 19.187a19.77 19.77 0 0 0 5.248 14.302 19.774 19.774 0 0 0 14.653 6.42 19.848 19.848 0 0 0 19.875-19.086A19.788 19.788 0 0 0 34.646 6.52 19.776 19.776 0 0 0 20.823.118zM38.875 20.78A18.842 18.842 0 0 1 19.23 38.876a18.766 18.766 0 0 1-13.117-6.077 18.76 18.76 0 0 1-4.976-13.57A18.83 18.83 0 0 1 19.99 1.118a18.76 18.76 0 0 1 13.905 6.093 18.764 18.764 0 0 1 4.98 13.57z" fill="none" stroke="#13498e" stroke-width=".199995" stroke-miterlimit="10"/>
  <path d="M37.818 25.563c-.034-.236-.146-.684-.63-.684-.243 0-.431.14-.566.26-.09.075-.455.198-.674.273-.43.143-.703.24-.883.407-.268.247-.284.585-.291.786-.003.05-.003.098-.006.127-.011.024-.096.084-.147.12-.148.105-.353.25-.481.51-.036.07-.062.137-.088.202 0 .002 0 .003-.002.005-1.17-.039-1.579 1.025-1.856 1.722l-.032.079c-.102.257-.253.433-.464.675l-.076.088c-.2.232-.286.478-.356.676a1.547 1.547 0 0 1-.13.298c-.027.042-.076.059-.294.103l-.066.015c-.148.03-.349.135-.463.454-.01.028-.253.71.03 1.066.16.2.569.417 1.302.179.175-.056.407-.1.623-.118-.067.302-.076.636.09.895.14.219.38.344.658.344l.078-.003c.309-.022.617-.105.89-.177.086-.022.172-.047.258-.066.26-.064.427-.278.654-.597l.073-.099A26.852 26.852 0 0 0 36.4 31.23a22.724 22.724 0 0 0 1.63-2.702c.313-.62.407-1.04.388-1.769-.026-.851-.315-1.13-.601-1.196m-.696 2.505a21.725 21.725 0 0 1-1.557 2.578 25.076 25.076 0 0 1-1.373 1.8c-.03.035-.075.095-.126.165-.039.057-.113.161-.165.223-.059.016-.12.03-.18.047-.148.039-.3.08-.445.108.025-.095.063-.21.115-.322a.583.583 0 0 0-.037-.556c-.19-.294-.568-.333-.877-.333-.196 0-.41.02-.619.053.05-.053.098-.113.142-.184.11-.175.17-.346.224-.495.052-.15.094-.266.172-.355l.073-.087c.233-.268.474-.547.638-.961l.034-.083c.259-.651.458-1.078.909-1.078h.002a.923.923 0 0 0 .084.002c.605 0 .786-.456.864-.652.016-.038.031-.08.052-.124.016-.03.096-.086.159-.131.146-.104.346-.248.473-.503a.929.929 0 0 0 .076-.233c.019-.091.026-.194.03-.297l.006-.1c.112-.053.325-.124.475-.174.221-.073.435-.145.62-.23.066.21.192.423.458.535a.283.283 0 0 0 .047.017c.004.038.005.079.008.121.011.525-.046.782-.282 1.25" fill="#13498e"/>
  <path d="M37.818 25.563c-.034-.236-.146-.684-.63-.684-.243 0-.431.14-.566.26-.09.075-.455.198-.674.273-.43.143-.703.24-.883.407-.268.247-.284.585-.291.786-.003.05-.003.098-.006.127-.011.024-.096.084-.147.12-.148.105-.353.25-.481.51-.036.07-.062.137-.088.202 0 .002 0 .003-.002.005-1.17-.039-1.579 1.025-1.856 1.722l-.032.079c-.102.257-.253.433-.464.675l-.076.088c-.2.232-.286.478-.356.676a1.547 1.547 0 0 1-.13.298c-.027.042-.076.059-.294.103l-.066.015c-.148.03-.349.135-.463.454-.01.028-.253.71.03 1.066.16.2.569.417 1.302.179.175-.056.407-.1.623-.118-.067.302-.076.636.09.895.14.219.38.344.658.344l.078-.003c.309-.022.617-.105.89-.177.086-.022.172-.047.258-.066.26-.064.427-.278.654-.597l.073-.099A26.852 26.852 0 0 0 36.4 31.23a22.724 22.724 0 0 0 1.63-2.702c.313-.62.407-1.04.388-1.769-.026-.851-.315-1.13-.601-1.196zm-.696 2.505a21.725 21.725 0 0 1-1.557 2.578 25.076 25.076 0 0 1-1.373 1.8c-.03.035-.075.095-.126.165-.039.057-.113.161-.165.223-.059.016-.12.03-.18.047-.148.039-.3.08-.445.108.025-.095.063-.21.115-.322a.583.583 0 0 0-.037-.556c-.19-.294-.568-.333-.877-.333-.196 0-.41.02-.619.053.05-.053.098-.113.142-.184.11-.175.17-.346.224-.495.052-.15.094-.266.172-.355l.073-.087c.233-.268.474-.547.638-.961l.034-.083c.259-.651.458-1.078.909-1.078h.002a.923.923 0 0 0 .084.002c.605 0 .786-.456.864-.652.016-.038.031-.08.052-.124.016-.03.096-.086.159-.131.146-.104.346-.248.473-.503a.929.929 0 0 0 .076-.233c.019-.091.026-.194.03-.297l.006-.1c.112-.053.325-.124.475-.174.221-.073.435-.145.62-.23.066.21.192.423.458.535a.283.283 0 0 0 .047.017c.004.038.005.079.008.121.011.525-.046.782-.282 1.25z" fill="none" stroke="#13498e" stroke-width=".199995" stroke-miterlimit="10"/>
  <path d="M38.013 13.09c-.302.148-1.593-.136-1.89-.332-.266-.3-.813-.28-1.077-.112a.588.588 0 0 0-.194.805c.641 1.121 1.079 2.527.523 2.958-.08.061-.217.11-.362.163-.26.094-.584.21-.828.489-.557.644-.12 1.264.091 1.56.04.055.08.111.115.167.182.288.385.992.281 1.339-.024.078-.05.088-.058.092-.268.119-.618-.64-.807-1.046-.09-.192-.169-.359-.25-.49a7.386 7.386 0 0 0-.35-.45c-.225-.278-.726-.898-.872-1.152a.511.511 0 0 0-.806-.393c-.82.586-1.516 1.164-1.716 2.323-.102.582.161 1.156.375 1.618.002.007.005.016.01.024-.31-.222-.666-.578-.742-.81-.052-.155.002-.439.054-.714.07-.368.15-.786.033-1.18-.204-.687-.626-1.03-1.035-1.36-.078-.065-.159-.129-.24-.2l-.2-.174c-.56-.496-1.331-1.178-2.243-1.105-.21.016-.602.045-.734.409-.125.347.124.592.244.71.048.048.109.105.163.178.107.146.218.294-.274.682-.096.075-.19.156-.285.24-.325.282-.543.458-.737.44-.176-.08-.488-.722-.637-1.031-.13-.265-.25-.512-.38-.714-.273-.424-1.04-.63-1.58-.418-.458.178-.685.62-.592 1.15.08.456.341.924.573 1.34.06.107.118.21.168.306l.078.157c.27.546.72 1.457 1.542 1.466a1.31 1.31 0 0 0 .478-.112c-.058.206-.172.5-.352.825-.221.399-.52.758-.837 1.141l-.336.41c-.724.887-1.408 1.726-1.257 3.17.01.11.03.226.05.344.048.3.094.581-.003.758-.052.1-.172.17-.359.277-.14.08-.3.171-.45.299-.404.348-.528.711-.648 1.153-.136.5-.324.721-.634 1.087-.092.108-.19.221-.292.35l-.14.178c-.3.387-.802 1.037-1.2 1.002-.31-.024-.455-.361-.662-1.108a4.321 4.321 0 0 0-.254-.75c-.07-.146-.107-.346-.146-.559a3.67 3.67 0 0 0-.157-.647l-.088-.235c-.126-.327-.235-.609-.225-.891.009-.258.068-.52.13-.794.1-.454.214-.967.109-1.53-.069-.372-.211-.696-.348-1.009-.143-.321-.274-.625-.3-.927l-.008-.102c-.055-.688-.138-1.73-.898-2.228-.7-.46-1.508-.18-2.096.025-.171.058-.334.115-.485.149-.515.122-.945-.4-1.435-1.217-.044-.075-.09-.149-.138-.223-.218-.346-.353-.571-.31-.823.02-.125.084-.259.157-.414.129-.268.286-.603.257-1.02-.07-1.02.732-1.827 1.081-2.127.36-.31.563-.637.76-.953.092-.145.186-.293.298-.445.403-.532 1.664-.924 2.37-.734.223.06.398.235.62.455.075.076.15.151.228.223.914.84 1.923.91 2.79.868.202-.01.416.004.64.02.276.02.56.039.852.017.276-.024.934-.132 1.148-.654.073-.179.142-.538-.216-.95-.353-.407-.9-.661-1.383-.886a7.269 7.269 0 0 1-.586-.294.508.508 0 0 0-.589.044c-.144.123-.292.175-.434.162-.17-.016-.344-.125-.495-.307a.51.51 0 0 0-.58-.15c-.123.049-.134.053-.448-.27-1.079-1.11-1.873-.348-2.35.108-.263.251-.51.487-.802.564-.029.008-.05.01-.057.013a.477.477 0 0 1 .01-.3c.047-.144.154-.283.336-.441.096-.082.206-.15.32-.222.38-.231 1.016-.622.628-1.66-.065-.178-.193-.325-.323-.463a.948.948 0 0 0 .26-.142c.167-.13.274-.29.359-.43.333.523.714 1.046 1.251.96.344-.055.58-.33.701-.82.023-.089.044-.156.061-.208.105-.334.087-.513-.093-.865-.008-.015-.013-.03-.02-.044a.37.37 0 0 0 .032-.012c.376-.155.682-.36.978-.556a7.79 7.79 0 0 1 .5-.317c.518-.294 1.047-.342 1.573-.15.119.045.231.094.342.144.46.201.983.428 1.658.234.224-.064.471-.085.734-.107.23-.02.471-.039.716-.09.32-.067.6-.198.846-.313.18-.083.352-.164.521-.214.063-.017.141-.028.227-.043.308-.052.694-.117.945-.37a.967.967 0 0 0 .16-.204l.038.02.332.183c.403.223.858.475 1.277.605.63.197 1.282.206 1.91.196.614.002 1.189-.001 1.7.176.383.133 1.703.411 1.76.423a.511.511 0 0 0 .605-.394.51.51 0 0 0-.394-.602c-.508-.109-1.4-.309-1.64-.39-.673-.231-1.37-.23-2.034-.231-.58.001-1.123.001-1.604-.15-.32-.1-.727-.326-1.085-.523-.124-.068-.24-.133-.35-.192-.055-.027-.11-.06-.164-.09-.412-.234-1.097-.624-1.771-.105a.51.51 0 0 0-.11.691.987.987 0 0 0-.08.022c-.25.07-.466.172-.676.27-.215.101-.418.196-.618.238-.188.038-.386.055-.597.073-.3.025-.607.05-.927.143-.311.089-.547-.004-.971-.19-.128-.056-.258-.113-.396-.164-.807-.3-1.649-.224-2.43.219-.198.112-.38.233-.562.355-.266.177-.517.344-.8.461-.237.098-.562.23-.687.564-.117.315.013.613.155.895.014.03.027.053.036.074-.001.007-.005.015-.009.025l-.02.067c-.1-.14-.2-.303-.266-.407a3.381 3.381 0 0 0-.318-.464.514.514 0 0 0-.568-.128c-.388.158-.565.468-.693.695-.058.104-.113.2-.135.221-.035.018-.084.031-.135.047-.245.079-.703.226-.751.696-.038.369.224.642.433.862.06.062.151.155.164.175.069.184.055.25.055.25-.024.041-.167.129-.26.189a3.28 3.28 0 0 0-.454.315c-.333.286-.538.575-.642.907-.134.427-.092.859.11 1.172a2.443 2.443 0 0 0-.67.591c-.134.176-.243.35-.35.52-.17.274-.318.51-.56.72-.983.845-1.505 1.928-1.432 2.97.01.144-.055.288-.162.513a2.498 2.498 0 0 0-.242.685c-.107.647.206 1.138.456 1.534.042.065.083.133.123.2.389.649 1.195 1.996 2.538 1.688.184-.043.383-.111.589-.181.453-.158.923-.32 1.204-.136.343.227.403.968.443 1.459l.008.106c.04.47.22.885.38 1.25.12.273.233.532.282.786.066.36-.012.713-.104 1.122-.068.308-.14.628-.153.978-.017.492.147.919.292 1.294l.083.218c.05.136.08.304.112.48.047.26.1.552.232.823.067.137.125.35.187.577.195.703.49 1.764 1.557 1.853.042.002.081.004.12.004.89 0 1.537-.836 1.971-1.399l.13-.168c.097-.12.188-.225.272-.324.347-.408.647-.76.843-1.48.094-.345.146-.491.328-.648.076-.064.18-.124.29-.184.25-.144.558-.32.752-.68.262-.482.177-.994.112-1.406a3.888 3.888 0 0 1-.042-.287c-.106-1.022.347-1.578 1.034-2.42l.33-.404c.332-.4.675-.813.944-1.297.411-.742.789-1.737.247-2.253-.352-.337-.818-.148-1.096-.037-.068.027-.133.058-.158.067-.09-.001-.274-.158-.64-.9l-.086-.174a8.678 8.678 0 0 0-.184-.334c-.18-.327-.406-.734-.458-1.021-.003-.013-.003-.025-.003-.034a.613.613 0 0 1 .333.06c.093.148.196.358.302.579.37.76.753 1.544 1.45 1.595.67.056 1.134-.356 1.509-.682.08-.072.164-.144.247-.208.737-.581.818-1.144.716-1.558.287.173.573.426.823.647l.21.184c.09.077.177.149.263.217.353.287.587.476.702.862.046.155-.008.432-.058.698-.074.384-.158.82-.02 1.228.198.59 1.015 1.378 1.682 1.623.418.152.703.065.869-.034.613-.372.287-1.081.071-1.551-.154-.334-.344-.75-.297-1.02.104-.592.384-.947.826-1.307.172.24.422.559.776.996.135.168.243.3.278.35.055.09.118.226.19.38.31.671.961 2.069 2.141 1.546.302-.134.517-.386.62-.727.216-.72-.107-1.726-.396-2.18a4.67 4.67 0 0 0-.143-.21c-.063-.09-.168-.238-.151-.303.068-.08.229-.137.398-.2.206-.073.438-.154.646-.316 1.013-.788.638-2.294.195-3.338.796.261 1.894.386 2.375.065a.512.512 0 0 0 .145-.709.505.505 0 0 0-.702-.142m-22.161-1.727c.252.26.617.63 1.174.567.281.25.612.402.956.434.304.026.607-.037.884-.19.126.065.26.126.39.186.335.157.71.332.94.531a.967.967 0 0 1-.141.02c-.216.02-.452.001-.7-.016-.186-.012-.376-.026-.571-.026-.064 0-.126.002-.189.005-.94.05-1.538-.129-2.052-.601a5.788 5.788 0 0 1-.2-.193c-.273-.275-.585-.586-1.074-.719a2.308 2.308 0 0 0-.206-.043c.367-.343.432-.324.789.045" fill="#13498e"/>
  <path d="M38.013 13.09c-.302.148-1.593-.136-1.89-.332-.266-.3-.813-.28-1.077-.112a.588.588 0 0 0-.194.805c.641 1.121 1.079 2.527.523 2.958-.08.061-.217.11-.362.163-.26.094-.584.21-.828.489-.557.644-.12 1.264.091 1.56.04.055.08.111.115.167.182.288.385.992.281 1.339-.024.078-.05.088-.058.092-.268.119-.618-.64-.807-1.046-.09-.192-.169-.359-.25-.49a7.386 7.386 0 0 0-.35-.45c-.225-.278-.726-.898-.872-1.152a.511.511 0 0 0-.806-.393c-.82.586-1.516 1.164-1.716 2.323-.102.582.161 1.156.375 1.618.002.007.005.016.01.024-.31-.222-.666-.578-.742-.81-.052-.155.002-.439.054-.714.07-.368.15-.786.033-1.18-.204-.687-.626-1.03-1.035-1.36-.078-.065-.159-.129-.24-.2l-.2-.174c-.56-.496-1.331-1.178-2.243-1.105-.21.016-.602.045-.734.409-.125.347.124.592.244.71.048.048.109.105.163.178.107.146.218.294-.274.682-.096.075-.19.156-.285.24-.325.282-.543.458-.737.44-.176-.08-.488-.722-.637-1.031-.13-.265-.25-.512-.38-.714-.273-.424-1.04-.63-1.58-.418-.458.178-.685.62-.592 1.15.08.456.341.924.573 1.34.06.107.118.21.168.306l.078.157c.27.546.72 1.457 1.542 1.466a1.31 1.31 0 0 0 .478-.112c-.058.206-.172.5-.352.825-.221.399-.52.758-.837 1.141l-.336.41c-.724.887-1.408 1.726-1.257 3.17.01.11.03.226.05.344.048.3.094.581-.003.758-.052.1-.172.17-.359.277-.14.08-.3.171-.45.299-.404.348-.528.711-.648 1.153-.136.5-.324.721-.634 1.087-.092.108-.19.221-.292.35l-.14.178c-.3.387-.802 1.037-1.2 1.002-.31-.024-.455-.361-.662-1.108a4.321 4.321 0 0 0-.254-.75c-.07-.146-.107-.346-.146-.559a3.67 3.67 0 0 0-.157-.647l-.088-.235c-.126-.327-.235-.609-.225-.891.009-.258.068-.52.13-.794.1-.454.214-.967.109-1.53-.069-.372-.211-.696-.348-1.009-.143-.321-.274-.625-.3-.927l-.008-.102c-.055-.688-.138-1.73-.898-2.228-.7-.46-1.508-.18-2.096.025-.171.058-.334.115-.485.149-.515.122-.945-.4-1.435-1.217-.044-.075-.09-.149-.138-.223-.218-.346-.353-.571-.31-.823.02-.125.084-.259.157-.414.129-.268.286-.603.257-1.02-.07-1.02.732-1.827 1.081-2.127.36-.31.563-.637.76-.953.092-.145.186-.293.298-.445.403-.532 1.664-.924 2.37-.734.223.06.398.235.62.455.075.076.15.151.228.223.914.84 1.923.91 2.79.868.202-.01.416.004.64.02.276.02.56.039.852.017.276-.024.934-.132 1.148-.654.073-.179.142-.538-.216-.95-.353-.407-.9-.661-1.383-.886a7.269 7.269 0 0 1-.586-.294.508.508 0 0 0-.589.044c-.144.123-.292.175-.434.162-.17-.016-.344-.125-.495-.307a.51.51 0 0 0-.58-.15c-.123.049-.134.053-.448-.27-1.079-1.11-1.873-.348-2.35.108-.263.251-.51.487-.802.564-.029.008-.05.01-.057.013a.477.477 0 0 1 .01-.3c.047-.144.154-.283.336-.441.096-.082.206-.15.32-.222.38-.231 1.016-.622.628-1.66-.065-.178-.193-.325-.323-.463a.948.948 0 0 0 .26-.142c.167-.13.274-.29.359-.43.333.523.714 1.046 1.251.96.344-.055.58-.33.701-.82.023-.089.044-.156.061-.208.105-.334.087-.513-.093-.865-.008-.015-.013-.03-.02-.044a.37.37 0 0 0 .032-.012c.376-.155.682-.36.978-.556a7.79 7.79 0 0 1 .5-.317c.518-.294 1.047-.342 1.573-.15.119.045.231.094.342.144.46.201.983.428 1.658.234.224-.064.471-.085.734-.107.23-.02.471-.039.716-.09.32-.067.6-.198.846-.313.18-.083.352-.164.521-.214.063-.017.141-.028.227-.043.308-.052.694-.117.945-.37a.967.967 0 0 0 .16-.204l.038.02.332.183c.403.223.858.475 1.277.605.63.197 1.282.206 1.91.196.614.002 1.189-.001 1.7.176.383.133 1.703.411 1.76.423a.511.511 0 0 0 .605-.394.51.51 0 0 0-.394-.602c-.508-.109-1.4-.309-1.64-.39-.673-.231-1.37-.23-2.034-.231-.58.001-1.123.001-1.604-.15-.32-.1-.727-.326-1.085-.523-.124-.068-.24-.133-.35-.192-.055-.027-.11-.06-.164-.09-.412-.234-1.097-.624-1.771-.105a.51.51 0 0 0-.11.691.987.987 0 0 0-.08.022c-.25.07-.466.172-.676.27-.215.101-.418.196-.618.238-.188.038-.386.055-.597.073-.3.025-.607.05-.927.143-.311.089-.547-.004-.971-.19-.128-.056-.258-.113-.396-.164-.807-.3-1.649-.224-2.43.219-.198.112-.38.233-.562.355-.266.177-.517.344-.8.461-.237.098-.562.23-.687.564-.117.315.013.613.155.895.014.03.027.053.036.074-.001.007-.005.015-.009.025l-.02.067c-.1-.14-.2-.303-.266-.407a3.381 3.381 0 0 0-.318-.464.514.514 0 0 0-.568-.128c-.388.158-.565.468-.693.695-.058.104-.113.2-.135.221-.035.018-.084.031-.135.047-.245.079-.703.226-.751.696-.038.369.224.642.433.862.06.062.151.155.164.175.069.184.055.25.055.25-.024.041-.167.129-.26.189a3.28 3.28 0 0 0-.454.315c-.333.286-.538.575-.642.907-.134.427-.092.859.11 1.172a2.443 2.443 0 0 0-.67.591c-.134.176-.243.35-.35.52-.17.274-.318.51-.56.72-.983.845-1.505 1.928-1.432 2.97.01.144-.055.288-.162.513a2.498 2.498 0 0 0-.242.685c-.107.647.206 1.138.456 1.534.042.065.083.133.123.2.389.649 1.195 1.996 2.538 1.688.184-.043.383-.111.589-.181.453-.158.923-.32 1.204-.136.343.227.403.968.443 1.459l.008.106c.04.47.22.885.38 1.25.12.273.233.532.282.786.066.36-.012.713-.104 1.122-.068.308-.14.628-.153.978-.017.492.147.919.292 1.294l.083.218c.05.136.08.304.112.48.047.26.1.552.232.823.067.137.125.35.187.577.195.703.49 1.764 1.557 1.853.042.002.081.004.12.004.89 0 1.537-.836 1.971-1.399l.13-.168c.097-.12.188-.225.272-.324.347-.408.647-.76.843-1.48.094-.345.146-.491.328-.648.076-.064.18-.124.29-.184.25-.144.558-.32.752-.68.262-.482.177-.994.112-1.406a3.888 3.888 0 0 1-.042-.287c-.106-1.022.347-1.578 1.034-2.42l.33-.404c.332-.4.675-.813.944-1.297.411-.742.789-1.737.247-2.253-.352-.337-.818-.148-1.096-.037-.068.027-.133.058-.158.067-.09-.001-.274-.158-.64-.9l-.086-.174a8.678 8.678 0 0 0-.184-.334c-.18-.327-.406-.734-.458-1.021-.003-.013-.003-.025-.003-.034a.613.613 0 0 1 .333.06c.093.148.196.358.302.579.37.76.753 1.544 1.45 1.595.67.056 1.134-.356 1.509-.682.08-.072.164-.144.247-.208.737-.581.818-1.144.716-1.558.287.173.573.426.823.647l.21.184c.09.077.177.149.263.217.353.287.587.476.702.862.046.155-.008.432-.058.698-.074.384-.158.82-.02 1.228.198.59 1.015 1.378 1.682 1.623.418.152.703.065.869-.034.613-.372.287-1.081.071-1.551-.154-.334-.344-.75-.297-1.02.104-.592.384-.947.826-1.307.172.24.422.559.776.996.135.168.243.3.278.35.055.09.118.226.19.38.31.671.961 2.069 2.141 1.546.302-.134.517-.386.62-.727.216-.72-.107-1.726-.396-2.18a4.67 4.67 0 0 0-.143-.21c-.063-.09-.168-.238-.151-.303.068-.08.229-.137.398-.2.206-.073.438-.154.646-.316 1.013-.788.638-2.294.195-3.338.796.261 1.894.386 2.375.065a.512.512 0 0 0 .145-.709.505.505 0 0 0-.702-.142zm-22.161-1.727c.252.26.617.63 1.174.567.281.25.612.402.956.434.304.026.607-.037.884-.19.126.065.26.126.39.186.335.157.71.332.94.531a.967.967 0 0 1-.141.02c-.216.02-.452.001-.7-.016-.186-.012-.376-.026-.571-.026-.064 0-.126.002-.189.005-.94.05-1.538-.129-2.052-.601a5.788 5.788 0 0 1-.2-.193c-.273-.275-.585-.586-1.074-.719a2.308 2.308 0 0 0-.206-.043c.367-.343.432-.324.789.045z" fill="none" stroke="#13498e" stroke-width=".199995" stroke-miterlimit="10"/>
  <path d="M12.69 1.516a.497.497 0 0 0-.463.522.509.509 0 0 0 .264.425c-.204.77-1.73 2.93-2.054 3.276a3.16 3.16 0 0 1-.64.397c-.24-.24-.7-.732-.833-.906a.509.509 0 0 0-.784-.212h-.003c-.143.111-.315.21-.495.313-.112.066-.226.132-.338.202-.52.33-.628 1.452-.513 1.95.12.52.469.614.612.63.229.03.434-.05.6-.153.064.163.15.343.272.507a3.106 3.106 0 0 1-.229.634.642.642 0 0 0-.22-.074c-.387-.06-.77.221-1.23.592a7.122 7.122 0 0 1-.11.088c-.425.193-.75.487-1.013.922a5.165 5.165 0 0 0-.15.262c-.131.23-.24.427-.407.578-.129.118-.281.224-.44.336-.313.219-.664.465-.919.85-.227.344-.278.716-.325 1.045-.045.324-.08.53-.21.668-.682.716-.518 1.227-.343 1.768.023.071.048.148.073.232-.016.053-.038.12-.065.19-.154-.175-.358-.335-.638-.369-.254-.028-.503.047-.743.234a.51.51 0 0 0-.425-.262.52.52 0 0 0-.532.49c-.027.614.223.861.438.962.483.222.943-.205 1.094-.344a.366.366 0 0 1 .043-.038c.047.056.104.145.14.2.116.177.318.489.658.489a.574.574 0 0 0 .168-.026c.523-.147.969-1.348.87-1.7-.037-.138-.078-.259-.112-.37-.148-.46-.152-.477.112-.756.363-.381.43-.85.48-1.228.036-.253.066-.472.168-.626.146-.223.39-.393.651-.574.18-.128.367-.258.542-.42.288-.261.458-.562.606-.829.045-.077.088-.155.136-.233.163-.267.337-.426.586-.534.094-.04.164-.097.307-.213.08-.067.26-.211.399-.303a.717.717 0 0 0 .586.132c.799-.17 1.07-1.68 1.074-1.695.024-.14.094-.563-.249-.77-.005-.001-.008-.004-.01-.005a2.443 2.443 0 0 1-.153-.366c-.097-.276-.208-.587-.55-.681a.63.63 0 0 0-.554.117c.02-.188.062-.383.113-.474a28.046 28.046 0 0 1 .44-.256c.408.478.987.992.997.996.639.356 1.748-.608 1.759-.618.03-.03 2.81-3.41 2.338-4.528-.127-.297-.41-.46-.776-.444" fill="#13498e"/>
  <path d="M12.69 1.516a.497.497 0 0 0-.463.522.509.509 0 0 0 .264.425c-.204.77-1.73 2.93-2.054 3.276a3.16 3.16 0 0 1-.64.397c-.24-.24-.7-.732-.833-.906a.509.509 0 0 0-.784-.212h-.003c-.143.111-.315.21-.495.313-.112.066-.226.132-.338.202-.52.33-.628 1.452-.513 1.95.12.52.469.614.612.63.229.03.434-.05.6-.153.064.163.15.343.272.507a3.106 3.106 0 0 1-.229.634.642.642 0 0 0-.22-.074c-.387-.06-.77.221-1.23.592a7.122 7.122 0 0 1-.11.088c-.425.193-.75.487-1.013.922a5.165 5.165 0 0 0-.15.262c-.131.23-.24.427-.407.578-.129.118-.281.224-.44.336-.313.219-.664.465-.919.85-.227.344-.278.716-.325 1.045-.045.324-.08.53-.21.668-.682.716-.518 1.227-.343 1.768.023.071.048.148.073.232-.016.053-.038.12-.065.19-.154-.175-.358-.335-.638-.369-.254-.028-.503.047-.743.234a.51.51 0 0 0-.425-.262.52.52 0 0 0-.532.49c-.027.614.223.861.438.962.483.222.943-.205 1.094-.344a.366.366 0 0 1 .043-.038c.047.056.104.145.14.2.116.177.318.489.658.489a.574.574 0 0 0 .168-.026c.523-.147.969-1.348.87-1.7-.037-.138-.078-.259-.112-.37-.148-.46-.152-.477.112-.756.363-.381.43-.85.48-1.228.036-.253.066-.472.168-.626.146-.223.39-.393.651-.574.18-.128.367-.258.542-.42.288-.261.458-.562.606-.829.045-.077.088-.155.136-.233.163-.267.337-.426.586-.534.094-.04.164-.097.307-.213.08-.067.26-.211.399-.303a.717.717 0 0 0 .586.132c.799-.17 1.07-1.68 1.074-1.695.024-.14.094-.563-.249-.77-.005-.001-.008-.004-.01-.005a2.443 2.443 0 0 1-.153-.366c-.097-.276-.208-.587-.55-.681a.63.63 0 0 0-.554.117c.02-.188.062-.383.113-.474a28.046 28.046 0 0 1 .44-.256c.408.478.987.992.997.996.639.356 1.748-.608 1.759-.618.03-.03 2.81-3.41 2.338-4.528-.127-.297-.41-.46-.776-.444z" fill="none" stroke="#13498e" stroke-width=".199995" stroke-miterlimit="10"/>
  <path d="M6.615 25.805c.12-.528.186-1.01.11-1.666-.063-.554-.152-1.313-.668-1.782-.273-.247-.571-.31-.789-.355-.221-.047-.268-.064-.33-.154-.243-.357-.336-.806-.417-1.27-.117-.686-.471-.852-.844-1.028l-.052-.026c-.07-.033-.157-.227-.221-.367-.143-.318-.339-.752-.836-.887-.437-.123-.755.117-.948.258a1.5 1.5 0 0 1-.102.073c-.042-.045-.11-.184-.147-.262-.08-.166-.17-.357-.33-.507a.494.494 0 0 0-.692.021.525.525 0 0 0-.008.719c.027.029.078.134.112.206.14.295.378.791.998.85.349.033.606-.156.776-.28.027-.02.065-.05.096-.069.048.064.112.204.153.296.128.285.305.676.709.868l.055.026c.093.045.21.1.234.123 0 0 .02.034.044.16.097.557.222 1.144.578 1.669.297.436.698.52.961.576.162.034.249.056.315.116.235.21.297.771.344 1.172.058.485.005.854-.096 1.294-.115.509-.035 1.133.241 1.851.11.29.12.5.043.81-.287 1.116-.43 2.098-.205 3.254.095.479.054 1.402 0 1.741a.51.51 0 0 0-.001.602c.1.136.27.216.438.216a.49.49 0 0 0 .197-.041c.685-.297.371-2.69.366-2.713-.188-.973-.068-1.796.192-2.808.13-.514.106-.938-.08-1.424-.199-.52-.267-.956-.196-1.262" fill="#13498e"/>
  <path d="M6.615 25.805c.12-.528.186-1.01.11-1.666-.063-.554-.152-1.313-.668-1.782-.273-.247-.571-.31-.789-.355-.221-.047-.268-.064-.33-.154-.243-.357-.336-.806-.417-1.27-.117-.686-.471-.852-.844-1.028l-.052-.026c-.07-.033-.157-.227-.221-.367-.143-.318-.339-.752-.836-.887-.437-.123-.755.117-.948.258a1.5 1.5 0 0 1-.102.073c-.042-.045-.11-.184-.147-.262-.08-.166-.17-.357-.33-.507a.494.494 0 0 0-.692.021.525.525 0 0 0-.008.719c.027.029.078.134.112.206.14.295.378.791.998.85.349.033.606-.156.776-.28.027-.02.065-.05.096-.069.048.064.112.204.153.296.128.285.305.676.709.868l.055.026c.093.045.21.1.234.123 0 0 .02.034.044.16.097.557.222 1.144.578 1.669.297.436.698.52.961.576.162.034.249.056.315.116.235.21.297.771.344 1.172.058.485.005.854-.096 1.294-.115.509-.035 1.133.241 1.851.11.29.12.5.043.81-.287 1.116-.43 2.098-.205 3.254.095.479.054 1.402 0 1.741a.51.51 0 0 0-.001.602c.1.136.27.216.438.216a.49.49 0 0 0 .197-.041c.685-.297.371-2.69.366-2.713-.188-.973-.068-1.796.192-2.808.13-.514.106-.938-.08-1.424-.199-.52-.267-.956-.196-1.262z" fill="none" stroke="#13498e" stroke-width=".199995" stroke-miterlimit="10"/>
</svg>