<svg xmlns="http://www.w3.org/2000/svg" viewBox="0 0 235.678 235.679" height="235.679" width="235.678">
  <g fill="#cbd6dc">
    <path d="M130.517 79.499c14.15 0 25.664 11.512 25.664 25.662 0 6.856 5.557 12.414 12.415 12.414 6.856 0 12.413-5.558 12.413-12.414 0-27.842-22.65-50.492-50.492-50.492-6.856 0-12.414 5.558-12.414 12.414 0 6.857 5.558 12.416 12.414 12.416"/>
    <path d="M130.517 0c-6.855 0-12.414 5.559-12.414 12.413 0 6.858 5.559 12.416 12.414 12.416 44.296 0 80.333 36.036 80.333 80.332 0 6.856 5.558 12.414 12.415 12.414 6.856 0 12.413-5.558 12.413-12.414C235.678 47.175 188.504 0 130.518 0M152.413 235.483a70.229 70.229 0 0 0 54.915-20.378l8.392-8.39c7.6-7.6 6.122-20.303-3.018-25.958l-42.994-26.592c-7.959-4.921-18.411-2.326-23.144 5.747l-9.766 16.659c-2.538 4.329-8.481 5.09-12.03 1.54l-67.203-67.2c-3.548-3.548-2.785-9.492 1.544-12.032l16.658-9.763c8.073-4.735 10.668-15.187 5.745-23.145l-26.59-42.994c-5.655-9.141-18.358-10.618-25.96-3.017l-8.39 8.392A70.235 70.235 0 0 0 .197 83.264a62.575 62.575 0 0 0 18.152 39.576l94.49 94.49a62.578 62.578 0 0 0 39.574 18.153"/>
  </g>
</svg>
