<?xml version="1.0" encoding="UTF-8" standalone="no"?>
<svg
   xmlns:dc="http://purl.org/dc/elements/1.1/"
   xmlns:cc="http://creativecommons.org/ns#"
   xmlns:rdf="http://www.w3.org/1999/02/22-rdf-syntax-ns#"
   xmlns:svg="http://www.w3.org/2000/svg"
   xmlns="http://www.w3.org/2000/svg"
   viewBox="0 0 63.475353 61.327423"
   height="61.327423"
   width="63.475353"
   xml:space="preserve"
   id="svg2"
   version="1.1"><metadata
     id="metadata8"><rdf:RDF><cc:Work
         rdf:about=""><dc:format>image/svg+xml</dc:format><dc:type
           rdf:resource="http://purl.org/dc/dcmitype/StillImage" /></cc:Work></rdf:RDF></metadata><defs
     id="defs6" /><g
     transform="matrix(1.3333333,0,0,-1.3333333,-0.00633548,61.333167)"
     id="g10"><g
       transform="scale(0.1)"
       id="g12"><path
         id="path14"
         style="fill:none;stroke:#424446;stroke-width:20;stroke-linecap:butt;stroke-linejoin:miter;stroke-miterlimit:10;stroke-dasharray:none;stroke-opacity:1"
         d="M 25,274.813 C 10.6563,266.531 5.74219,248.184 14.0234,233.828 l 15,-25.976 34.6485,20" /><path
         id="path16"
         style="fill:none;stroke:#424446;stroke-width:20;stroke-linecap:butt;stroke-linejoin:miter;stroke-miterlimit:10;stroke-dasharray:none;stroke-opacity:1"
         d="m 374.188,210.012 29.64,-51.352" /><path
         id="path18"
         style="fill:none;stroke:#424446;stroke-width:20;stroke-linecap:butt;stroke-linejoin:miter;stroke-miterlimit:10;stroke-dasharray:none;stroke-opacity:1"
         d="M 255.625,15.3594 C 236.504,4.31641 212.031,10.8789 200.984,30.0117 L 65.9844,263.84 C 57.6953,278.184 39.3555,283.098 25,274.813 l 81.152,46.847 126.7,73.156 c 14.343,8.282 32.695,3.368 40.976,-10.976 L 304.902,330" /><path
         id="path20"
         style="fill:none;stroke:#424446;stroke-width:20;stroke-linecap:butt;stroke-linejoin:miter;stroke-miterlimit:10;stroke-dasharray:none;stroke-opacity:1"
         d="m 270.266,70.0117 -5,8.6602 190.535,110.0001 5,-8.66 c 11.035,-19.133 4.48,-43.594 -14.649,-54.641 L 255.625,15.3711 c 19.133,11.0469 25.691,35.5078 14.641,54.6406 z" /><path
         id="path22"
         style="fill:none;stroke:#424446;stroke-width:20;stroke-linecap:butt;stroke-linejoin:round;stroke-miterlimit:10;stroke-dasharray:none;stroke-opacity:1"
         d="m 336.16,210 20,40 40,20 -40,20 -20,40 -20,-40 -40,-20 40,-20 z" /><path
         id="path24"
         style="fill:none;stroke:#424446;stroke-width:20;stroke-linecap:butt;stroke-linejoin:round;stroke-miterlimit:10;stroke-dasharray:none;stroke-opacity:1"
         d="M 376.16,350 392.832,383.332 426.16,400 392.832,416.668 376.16,450 359.492,416.668 326.16,400 359.492,383.332 Z" /><path
         id="path26"
         style="fill:none;stroke:#424446;stroke-width:20;stroke-linecap:butt;stroke-linejoin:round;stroke-miterlimit:10;stroke-dasharray:none;stroke-opacity:1"
         d="M 436.16,350 V 330" /><path
         id="path28"
         style="fill:none;stroke:#424446;stroke-width:20;stroke-linecap:butt;stroke-linejoin:round;stroke-miterlimit:10;stroke-dasharray:none;stroke-opacity:1"
         d="M 436.16,310 V 290" /><path
         id="path30"
         style="fill:none;stroke:#424446;stroke-width:20;stroke-linecap:butt;stroke-linejoin:round;stroke-miterlimit:10;stroke-dasharray:none;stroke-opacity:1"
         d="m 426.16,320 h -20" /><path
         id="path32"
         style="fill:none;stroke:#424446;stroke-width:20;stroke-linecap:butt;stroke-linejoin:round;stroke-miterlimit:10;stroke-dasharray:none;stroke-opacity:1"
         d="m 466.16,320 h -20" /></g></g></svg>