<svg xmlns="http://www.w3.org/2000/svg" height="62.266" width="90.116">
  <g fill="#13498e">
    <path d="M14.724 39.903a1.96 1.96 0 0 0 0-3.919 1.96 1.96 0 0 0 0 3.919M16.682 50.335a1.959 1.959 0 1 0-.001-3.918 1.959 1.959 0 0 0 0 3.918M22.605 34.07a1.96 1.96 0 1 0 0-3.92 1.96 1.96 0 0 0 0 3.92M35.054 48.376a1.958 1.958 0 1 0 0-3.917 1.958 1.958 0 0 0 0 3.917M29.316 24.753a1.96 1.96 0 0 0 1.96-1.959 1.96 1.96 0 0 0-3.918 0c0 1.08.876 1.959 1.958 1.959M48.557 54.002a1.958 1.958 0 1 0 0-3.916 1.958 1.958 0 0 0 0 3.916M45.31 31.427a1.96 1.96 0 0 0 1.959-1.958 1.96 1.96 0 0 0-3.918 0 1.96 1.96 0 0 0 1.958 1.958M41.393 11.224a1.959 1.959 0 1 0 0 0M43.099 48.376a1.959 1.959 0 1 0 .001-3.917 1.959 1.959 0 0 0-.001 3.917M67.557 43.82a1.959 1.959 0 1 0 0-3.918 1.959 1.959 0 0 0 0 3.917M22.605 41.86a1.96 1.96 0 1 0 0-3.92 1.96 1.96 0 0 0 0 3.92M70.86 50.335a1.959 1.959 0 1 0 0-3.918 1.959 1.959 0 0 0 0 3.918M33.096 55.96a1.958 1.958 0 1 0 0-3.917 1.958 1.958 0 0 0 0 3.916M43.099 39.903a1.96 1.96 0 0 0 0-3.919 1.96 1.96 0 0 0 0 3.919"/>
    <path d="M30.606 58.932h29.407l4.842-5.042a1.66 1.66 0 0 1 1.202-.514h18.768l1.673-6.353-5.133-2.66a1.7 1.7 0 0 1-.433-.326l-6.739-7.018a1.67 1.67 0 0 1-.463-1.153V29.68l-6.708-1.547a1.664 1.664 0 0 1-1.198-1.073l-4.052-11.537h-2.094c-.54 0-1.044-.26-1.357-.699L52.502 6.66H49.62a1.67 1.67 0 0 1-.868-.245l-4.923-3.003-5.196.864-2.571 6.044a1.662 1.662 0 0 1-.599.727L23.85 18.909l-.406 5.128a1.666 1.666 0 0 1-1.337 1.505l-4.268.848-8.693 12.073 1.57 4.318c.238.648.05 1.372-.468 1.825L4.104 49.98 7.5 53.376h17.063c.454 0 .888.185 1.201.514zm30.118 3.334H29.897c-.455 0-.889-.185-1.202-.512l-4.843-5.045H6.81a1.66 1.66 0 0 1-1.177-.488L.487 51.078A1.662 1.662 0 0 1 0 49.844c.015-.461.221-.896.568-1.2l6.623-5.797-1.481-4.074a1.67 1.67 0 0 1 .213-1.542l9.593-13.322c.246-.341.614-.58 1.027-.662l3.675-.729.37-4.67c.04-.504.306-.965.726-1.25l11.87-8.035 2.736-6.435c.224-.525.701-.899 1.264-.993l6.71-1.112c.391-.067.8.013 1.138.222l5.054 3.08h3.273c.54 0 1.046.26 1.358.698l5.818 8.167h2.417c.706 0 1.338.445 1.573 1.115l4.139 11.786 7.107 1.64a1.666 1.666 0 0 1 1.292 1.623v6.841l6.08 6.335 6.073 3.147a1.672 1.672 0 0 1 .845 1.905l-2.34 8.887a1.67 1.67 0 0 1-1.612 1.24H66.768l-4.844 5.045a1.659 1.659 0 0 1-1.2.512"/>
    <path d="M66.058 56.71c-.64 0-1.25-.369-1.526-.99l-2.667-6a1.666 1.666 0 0 1 .848-2.2 1.663 1.663 0 0 1 2.2.847l2.667 6a1.667 1.667 0 0 1-1.522 2.344M24.562 56.71a1.668 1.668 0 0 1-1.508-2.378l6.607-14.04c.195-.413.55-.728.983-.872l4.42-1.47 1.274-8.237c.14-.911.992-1.528 1.901-1.394a1.67 1.67 0 0 1 1.393 1.902l-1.43 9.244a1.663 1.663 0 0 1-1.12 1.327l-4.707 1.566-6.304 13.396a1.666 1.666 0 0 1-1.509.957"/>
  </g>
</svg>