<svg xmlns="http://www.w3.org/2000/svg" height="25.224" width="39.977">
  <path d="M35.918 12.893a.645.645 0 0 1-.38-.138c-.228-.192-.263-.601-.072-.83.185-.222.615-.257.835-.07.226.194.259.606.065.832a.638.638 0 0 1-.448.206" fill="#13498e"/>
  <path d="M35.918 12.893a.645.645 0 0 1-.38-.138c-.228-.192-.263-.601-.072-.83.185-.222.615-.257.835-.07.226.194.259.606.065.832a.638.638 0 0 1-.448.206z" fill="none" stroke="#13498e" stroke-width=".333325" stroke-miterlimit="10"/>
  <path d="M8.054 17.872a.63.63 0 0 1-.38-.14.618.618 0 0 1-.194-.401.639.639 0 0 1 .125-.432c.188-.218.618-.25.835-.06.224.195.254.601.062.826a.638.638 0 0 1-.448.207" fill="#13498e"/>
  <path d="M8.054 17.872a.63.63 0 0 1-.38-.14.618.618 0 0 1-.194-.401.639.639 0 0 1 .125-.432c.188-.218.618-.25.835-.06.224.195.254.601.062.826a.638.638 0 0 1-.448.207z" fill="none" stroke="#13498e" stroke-width=".333325" stroke-miterlimit="10"/>
  <path d="M4.602 9.844A.622.622 0 0 1 4.22 9.7c-.226-.19-.26-.6-.069-.828.184-.218.611-.256.83-.071a.625.625 0 0 1 .07.834.643.643 0 0 1-.45.208" fill="#13498e"/>
  <path d="M4.602 9.844A.622.622 0 0 1 4.22 9.7c-.226-.19-.26-.6-.069-.828.184-.218.611-.256.83-.071a.625.625 0 0 1 .07.834.643.643 0 0 1-.45.208z" fill="none" stroke="#13498e" stroke-width=".333325" stroke-miterlimit="10"/>
  <path d="M5.813 3.91a.542.542 0 0 1-.506-.348c-.27-.718-.86-.908-.886-.916a.542.542 0 0 1 .3-1.04c.043.014 1.127.331 1.597 1.574a.54.54 0 0 1-.505.73" fill="#13498e"/>
  <path d="M5.813 3.91a.542.542 0 0 1-.506-.348c-.27-.718-.86-.908-.886-.916a.542.542 0 0 1 .3-1.04c.043.014 1.127.331 1.597 1.574a.54.54 0 0 1-.505.73z" fill="none" stroke="#13498e" stroke-width=".333325" stroke-miterlimit="10"/>
  <path d="M19.242 25.057l-1.204-.001c-1.151 0-2.446-.281-3.697-.552-1.139-.246-2.216-.48-3.069-.48l-.298.002c-6.196 0-6.911-4.206-6.911-7.37 0-3.133 2.032-6.956 7.761-7.427.758-.062 1.793-.283 2.889-.514 1.367-.29 2.78-.592 3.912-.642 9.255-.414 12.55 4.45 12.55 8.583 0 3.142-.634 6.548-5.343 7.98-1.223.373-4.164.421-6.59.421m-7.97-2.112c.969 0 2.102.243 3.298.503 1.197.26 2.432.528 3.468.528l1.204.002c1.25 0 5.049 0 6.276-.374 4.023-1.224 4.577-4.062 4.577-6.948 0-4.573-4.084-7.526-10.405-7.526-.33 0-.67.008-1.016.02-1.044.048-2.412.34-3.738.62-1.13.24-2.196.467-3.024.535-4.997.411-6.77 3.678-6.77 6.351 0 3.11.693 6.29 5.832 6.29h.298" fill="#13498e"/>
  <path d="M19.242 25.057l-1.204-.001c-1.151 0-2.446-.281-3.697-.552-1.139-.246-2.216-.48-3.069-.48l-.298.002c-6.196 0-6.911-4.206-6.911-7.37 0-3.133 2.032-6.956 7.761-7.427.758-.062 1.793-.283 2.889-.514 1.367-.29 2.78-.592 3.912-.642 9.255-.414 12.55 4.45 12.55 8.583 0 3.142-.634 6.548-5.343 7.98-1.223.373-4.164.421-6.59.421zm-7.97-2.112c.969 0 2.102.243 3.298.503 1.197.26 2.432.528 3.468.528l1.204.002c1.25 0 5.049 0 6.276-.374 4.023-1.224 4.577-4.062 4.577-6.948 0-4.573-4.084-7.526-10.405-7.526-.33 0-.67.008-1.016.02-1.044.048-2.412.34-3.738.62-1.13.24-2.196.467-3.024.535-4.997.411-6.77 3.678-6.77 6.351 0 3.11.693 6.29 5.832 6.29z" fill="none" stroke="#13498e" stroke-width=".333325" stroke-miterlimit="10"/>
  <path d="M4.977 14.978a.644.644 0 0 1-.126-.015C2.313 14.36.753 12.82.343 10.505c-.268-1.487-.8-6.517 3.492-8.719C4.963 1.206 8.147.641 9.858.336l.422-.075c.983-.178 2.43-.066 3.829.044C15.347.4 16.629.5 17.32.362c2.31-.45 5.36-.033 6.776 4.529a.538.538 0 1 1-1.03.32C22.104 2.12 20.297.88 17.53 1.423c-.837.163-2.133.064-3.505-.042-1.33-.104-2.706-.21-3.554-.057l-.424.077c-1.537.273-4.735.841-5.718 1.346C.695 4.61 1.171 9.013 1.405 10.316c.333 1.882 1.578 3.093 3.697 3.596.29.07.47.36.402.649a.542.542 0 0 1-.527.417" fill="#13498e"/>
  <path d="M4.977 14.978a.644.644 0 0 1-.126-.015C2.313 14.36.753 12.82.343 10.505c-.268-1.487-.8-6.517 3.492-8.719C4.963 1.206 8.147.641 9.858.336l.422-.075c.983-.178 2.43-.066 3.829.044C15.347.4 16.629.5 17.32.362c2.31-.45 5.36-.033 6.776 4.529a.538.538 0 1 1-1.03.32C22.104 2.12 20.297.88 17.53 1.423c-.837.163-2.133.064-3.505-.042-1.33-.104-2.706-.21-3.554-.057l-.424.077c-1.537.273-4.735.841-5.718 1.346C.695 4.61 1.171 9.013 1.405 10.316c.333 1.882 1.578 3.093 3.697 3.596.29.07.47.36.402.649a.542.542 0 0 1-.527.417z" fill="none" stroke="#13498e" stroke-width=".333325" stroke-miterlimit="10"/>
  <path d="M30.63 17.484a.539.539 0 0 1-.099-1.07c.782-.147 1.533-.282 2.132-.332 4.479-.335 6.068-3.007 6.068-5.191 0-1.269-.137-2.856-1.202-3.906-.865-.85-2.275-1.256-4.204-1.24-.873.016-1.932-.197-3.037-.418-1.087-.218-2.213-.443-3.157-.44-2.81.009-7.806 2.194-9.898 4.328a.54.54 0 0 1-.77-.754c2.29-2.339 7.574-4.645 10.665-4.653 1.08-.022 2.231.232 3.372.46 1.048.21 2.043.396 2.809.399 2.21-.05 3.9.487 4.978 1.549 1.366 1.346 1.523 3.313 1.523 4.675 0 2.646-1.85 5.877-7.063 6.268-.544.044-1.264.174-2.015.316a.557.557 0 0 1-.102.01" fill="#13498e"/>
  <path d="M30.63 17.484a.539.539 0 0 1-.099-1.07c.782-.147 1.533-.282 2.132-.332 4.479-.335 6.068-3.007 6.068-5.191 0-1.269-.137-2.856-1.202-3.906-.865-.85-2.275-1.256-4.204-1.24-.873.016-1.932-.197-3.037-.418-1.087-.218-2.213-.443-3.157-.44-2.81.009-7.806 2.194-9.898 4.328a.54.54 0 0 1-.77-.754c2.29-2.339 7.574-4.645 10.665-4.653 1.08-.022 2.231.232 3.372.46 1.048.21 2.043.396 2.809.399 2.21-.05 3.9.487 4.978 1.549 1.366 1.346 1.523 3.313 1.523 4.675 0 2.646-1.85 5.877-7.063 6.268-.544.044-1.264.174-2.015.316a.557.557 0 0 1-.102.01z" fill="none" stroke="#13498e" stroke-width=".333325" stroke-miterlimit="10"/>
  <path d="M25.842 20.893a.637.637 0 0 1-.38-.138.63.63 0 0 1-.07-.833c.189-.219.616-.253.833-.068.226.194.26.602.068.828a.633.633 0 0 1-.45.211" fill="#13498e"/>
  <path d="M25.842 20.893a.637.637 0 0 1-.38-.138.63.63 0 0 1-.07-.833c.189-.219.616-.253.833-.068.226.194.26.602.068.828a.633.633 0 0 1-.45.211z" fill="none" stroke="#13498e" stroke-width=".333325" stroke-miterlimit="10"/>
  <path d="M17.81 17.534a.64.64 0 0 1-.383-.14c-.226-.195-.259-.607-.065-.832.186-.217.61-.252.828-.069.228.192.262.602.072.83a.636.636 0 0 1-.452.21" fill="#13498e"/>
  <path d="M17.81 17.534a.64.64 0 0 1-.383-.14c-.226-.195-.259-.607-.065-.832.186-.217.61-.252.828-.069.228.192.262.602.072.83a.636.636 0 0 1-.452.21z" fill="none" stroke="#13498e" stroke-width=".333325" stroke-miterlimit="10"/>
  <path d="M22.859 12.844a.64.64 0 0 1-.388-.146c-.222-.194-.251-.602-.061-.826.187-.216.61-.252.828-.07a.628.628 0 0 1 .07.836.64.64 0 0 1-.45.206" fill="#13498e"/>
  <path d="M22.859 12.844a.64.64 0 0 1-.388-.146c-.222-.194-.251-.602-.061-.826.187-.216.61-.252.828-.07a.628.628 0 0 1 .07.836.64.64 0 0 1-.45.206z" fill="none" stroke="#13498e" stroke-width=".333325" stroke-miterlimit="10"/>
  <path d="M32.206 9.18a.642.642 0 0 1-.38-.14.624.624 0 0 1-.193-.405.62.62 0 0 1 .125-.428c.186-.22.613-.251.83-.065.226.191.26.6.07.827a.642.642 0 0 1-.452.21" fill="#13498e"/>
  <path d="M32.206 9.18a.642.642 0 0 1-.38-.14.624.624 0 0 1-.193-.405.62.62 0 0 1 .125-.428c.186-.22.613-.251.83-.065.226.191.26.6.07.827a.642.642 0 0 1-.452.21z" fill="none" stroke="#13498e" stroke-width=".333325" stroke-miterlimit="10"/>
  <path d="M11.766 4.18a.63.63 0 0 1-.38-.138.632.632 0 0 1-.195-.403.64.64 0 0 1 .125-.43c.188-.22.619-.252.837-.06.222.193.252.6.06.825a.641.641 0 0 1-.447.207" fill="#13498e"/>
  <path d="M11.766 4.18a.63.63 0 0 1-.38-.138.632.632 0 0 1-.195-.403.64.64 0 0 1 .125-.43c.188-.22.619-.252.837-.06.222.193.252.6.06.825a.641.641 0 0 1-.447.207z" fill="none" stroke="#13498e" stroke-width=".333325" stroke-miterlimit="10"/>
  <path d="M14.857 12.596a.544.544 0 0 1-.505-.349c-.595-1.572-1.91-1.957-1.923-1.96a.54.54 0 0 1 .292-1.04c.075.021 1.855.543 2.641 2.618a.54.54 0 0 1-.505.731" fill="#13498e"/>
  <path d="M14.857 12.596a.544.544 0 0 1-.505-.349c-.595-1.572-1.91-1.957-1.923-1.96a.54.54 0 0 1 .292-1.04c.075.021 1.855.543 2.641 2.618a.54.54 0 0 1-.505.731z" fill="none" stroke="#13498e" stroke-width=".333325" stroke-miterlimit="10"/>
  <path d="M28.31 6.285a.541.541 0 0 1-.505-.35c-.32-.844-1.026-1.065-1.033-1.068a.537.537 0 0 1-.373-.664.538.538 0 0 1 .665-.375c.05.014 1.234.362 1.751 1.727a.539.539 0 0 1-.505.73" fill="#13498e"/>
  <path d="M28.31 6.285a.541.541 0 0 1-.505-.35c-.32-.844-1.026-1.065-1.033-1.068a.537.537 0 0 1-.373-.664.538.538 0 0 1 .665-.375c.05.014 1.234.362 1.751 1.727a.539.539 0 0 1-.505.73z" fill="none" stroke="#13498e" stroke-width=".333325" stroke-miterlimit="10"/>
  <path d="M16.847 24.965a.54.54 0 0 1-.022-1.08c1.005-.04 1.484-.699 1.502-.726a.546.546 0 0 1 .751-.136.54.54 0 0 1 .142.745c-.031.046-.786 1.133-2.35 1.195-.006.002-.016.002-.023.002" fill="#13498e"/>
  <path d="M16.847 24.965a.54.54 0 0 1-.022-1.08c1.005-.04 1.484-.699 1.502-.726a.546.546 0 0 1 .751-.136.54.54 0 0 1 .142.745c-.031.046-.786 1.133-2.35 1.195-.006.002-.016.002-.023.002z" fill="none" stroke="#13498e" stroke-width=".333325" stroke-miterlimit="10"/>
</svg>