<svg xmlns="http://www.w3.org/2000/svg" viewBox="0 0 46.32 61.84" height="61.84" width="46.32">
  <path d="M23.159-.004C12.08-.004 0 7.919 0 21.813c0 16.08 15.456 31.1 23.159 40.027 7.707-8.927 23.159-23.948 23.159-40.027 0-13.77-12.343-21.817-23.16-21.817" fill="#00586f"/>
  <path d="M38.504 22.175c0 8.53-6.915 15.445-15.444 15.445-8.531 0-15.448-6.915-15.448-15.445 0-8.53 6.917-15.446 15.448-15.446 8.529 0 15.444 6.915 15.444 15.446" fill="#7dcb2b"/>
  <path d="M23.259 6.73c8.53 0 15.445 6.914 15.445 15.445 0 8.53-6.915 15.446-15.445 15.446" fill="#66b831"/>
  <path d="M15.138 26.768h1.112v-7.806h-1.112v7.806m7.391 0h1.095v-7.804h-1.095v7.804m3.675 0h1.121v-7.803h-1.12v7.803m3.696 0H31V18.97h-1.099v7.798m-11.068 0h1.112v-7.806h-1.112v7.806m-4.067-8.308h16.633v-.87H14.766v.87m-.257 9.167h17.078v-.365H14.509v.365" fill="#fff"/>
  <path d="M31.587 27.627H14.509v-.365h17.078z" fill="none" stroke="#fff" stroke-width=".071"/>
  <path d="M32.099 16.634l-9.033-2.696v.003l-8.957 2.685-.018.008.023.44h17.98l.023-.43-.018-.01m-8.378-3.5c0 .283-.242.51-.539.51a.523.523 0 0 1-.536-.51c0-.283.24-.51.536-.51.297 0 .54.227.54.51" fill="#fff"/>
</svg>
