<?xml version="1.0" encoding="UTF-8" standalone="no"?>
<svg
   xmlns:dc="http://purl.org/dc/elements/1.1/"
   xmlns:cc="http://creativecommons.org/ns#"
   xmlns:rdf="http://www.w3.org/1999/02/22-rdf-syntax-ns#"
   xmlns:svg="http://www.w3.org/2000/svg"
   xmlns="http://www.w3.org/2000/svg"
   viewBox="0 0 40.010341 40.008918"
   height="40.008919"
   width="40.010342"
   xml:space="preserve"
   id="svg2"
   version="1.1"><metadata
     id="metadata8"><rdf:RDF><cc:Work
         rdf:about=""><dc:format>image/svg+xml</dc:format><dc:type
           rdf:resource="http://purl.org/dc/dcmitype/StillImage" /></cc:Work></rdf:RDF></metadata><defs
     id="defs6" /><g
     transform="matrix(1.3333333,0,0,-1.3333333,9.1464586e-5,40.009439)"
     id="g10"><g
       transform="scale(0.1)"
       id="g12"><path
         id="path14"
         style="fill:#231f20;fill-opacity:1;fill-rule:nonzero;stroke:none"
         d="M 156.172,299.188 C 73.1641,302.637 4.27734,238.504 0.878906,156.172 -0.761719,116.328 13.2148,78.2422 40.2344,48.9063 67.2461,19.5781 104.055,2.51953 143.906,0.878906 c 2.09,-0.078125 4.16,-0.125 6.231,-0.125 80.285,0 145.761,62.878894 149.062,143.141094 1.629,39.843 -12.344,77.929 -39.355,107.277 -27.012,29.324 -63.828,46.375 -103.672,48.016 M 291.563,144.211 C 288.34,66.0859 222.988,5.30078 144.219,8.50391 106.406,10.0664 71.4648,26.25 45.8398,54.082 20.2148,81.9141 6.95313,118.055 8.51563,155.859 11.6406,232.02 73.7617,291.68 149.934,291.68 c 1.968,0 3.933,-0.039 5.925,-0.117 37.801,-1.555 72.735,-17.747 98.36,-45.579 25.636,-27.82 38.886,-63.972 37.344,-101.773" /><path
         id="path16"
         style="fill:none;stroke:#231f20;stroke-width:1.5;stroke-linecap:butt;stroke-linejoin:miter;stroke-miterlimit:10;stroke-dasharray:none;stroke-opacity:1"
         d="M 156.172,299.188 C 73.1641,302.637 4.27734,238.504 0.878906,156.172 -0.761719,116.328 13.2148,78.2422 40.2344,48.9063 67.2461,19.5781 104.055,2.51953 143.906,0.878906 c 2.09,-0.078125 4.16,-0.125 6.231,-0.125 80.285,0 145.761,62.878894 149.062,143.141094 1.629,39.843 -12.344,77.929 -39.355,107.277 -27.012,29.324 -63.828,46.375 -103.672,48.016 z M 291.563,144.211 C 288.34,66.0859 222.988,5.30078 144.219,8.50391 106.406,10.0664 71.4648,26.25 45.8398,54.082 20.2148,81.9141 6.95313,118.055 8.51563,155.859 11.6406,232.02 73.7617,291.68 149.934,291.68 c 1.968,0 3.933,-0.039 5.925,-0.117 37.801,-1.555 72.735,-17.747 98.36,-45.579 25.636,-27.82 38.886,-63.972 37.344,-101.773 z" /><path
         id="path18"
         style="fill:#231f20;fill-opacity:1;fill-rule:nonzero;stroke:none"
         d="m 283.633,108.348 c -0.254,1.769 -1.094,5.129 -4.727,5.129 -1.816,0 -3.23,-1.047 -4.238,-1.954 -0.684,-0.558 -3.418,-1.476 -5.059,-2.043 -3.23,-1.074 -5.273,-1.804 -6.621,-3.054 -2.011,-1.848 -2.129,-4.387 -2.187,-5.891 -0.02,-0.371 -0.02,-0.7381 -0.039,-0.9569 -0.086,-0.1758 -0.723,-0.625 -1.106,-0.8984 -1.109,-0.7891 -2.644,-1.875 -3.609,-3.8281 -0.266,-0.5157 -0.461,-1.0235 -0.656,-1.5118 0,-0.0117 0,-0.0195 -0.02,-0.039 -8.769,0.293 -11.836,-7.6875 -13.918,-12.9102 l -0.242,-0.5937 c -0.762,-1.9258 -1.895,-3.2461 -3.477,-5.0625 l -0.566,-0.6641 c -1.504,-1.7344 -2.148,-3.582 -2.676,-5.0664 -0.312,-0.8711 -0.586,-1.6328 -0.969,-2.2383 -0.203,-0.3125 -0.574,-0.4375 -2.207,-0.7695 l -0.496,-0.1094 c -1.113,-0.2344 -2.617,-1.0156 -3.476,-3.4062 -0.078,-0.2149 -1.895,-5.3242 0.234,-8 1.192,-1.5039 4.258,-3.125 9.758,-1.336 1.316,0.418 3.055,0.75 4.676,0.8789 -0.508,-2.2656 -0.574,-4.7656 0.676,-6.7109 1.042,-1.6406 2.847,-2.5781 4.929,-2.5781 0.098,0 0.481,0.0117 0.586,0.0195 2.317,0.168 4.629,0.793 6.68,1.332 0.644,0.1641 1.289,0.3477 1.933,0.4961 1.954,0.4766 3.204,2.0782 4.903,4.4727 0.234,0.3125 0.41,0.5742 0.547,0.7422 1.281,1.5117 2.531,3.0664 3.757,4.6367 2.336,2.9492 4.68,6.125 6.985,9.4141 4.734,6.7968 8.847,13.6054 12.219,20.2656 2.351,4.6406 3.054,7.793 2.918,13.2617 -0.196,6.387 -2.364,8.484 -4.512,8.973 m -5.215,-18.7894 c -3.215,-6.3359 -7.148,-12.8398 -11.68,-19.3359 -2.207,-3.1836 -4.472,-6.2305 -6.699,-9.0625 -1.184,-1.4922 -2.383,-2.9766 -3.601,-4.4336 -0.227,-0.2618 -0.559,-0.711 -0.942,-1.2383 -0.293,-0.4297 -0.848,-1.211 -1.238,-1.6719 -0.442,-0.1172 -0.899,-0.2305 -1.348,-0.3516 -1.113,-0.2929 -2.258,-0.6054 -3.34,-0.8085 0.188,0.7109 0.469,1.5703 0.86,2.4101 0.625,1.3672 0.515,2.9219 -0.274,4.1719 -1.426,2.207 -4.258,2.5 -6.582,2.5 -1.465,0 -3.078,-0.1563 -4.636,-0.3985 0.371,0.3985 0.73,0.8477 1.062,1.375 0.82,1.3165 1.27,2.5977 1.68,3.7188 0.39,1.125 0.703,1.9922 1.289,2.6562 l 0.547,0.6563 c 1.75,2.0117 3.554,4.1016 4.785,7.207 l 0.254,0.625 c 1.941,4.8828 3.437,8.086 6.816,8.086 h 0.02 c 0.214,-0.0196 0.429,-0.0196 0.632,-0.0196 4.536,0 5.891,3.418 6.477,4.8907 0.117,0.2851 0.234,0.6054 0.391,0.9296 0.117,0.2227 0.722,0.6446 1.191,0.9844 1.094,0.7813 2.598,1.8555 3.547,3.7696 0.262,0.539 0.445,1.0937 0.574,1.75 0.137,0.6835 0.195,1.4531 0.227,2.2262 0.008,0.227 0.027,0.508 0.039,0.75 0.84,0.395 2.437,0.93 3.562,1.309 1.66,0.547 3.262,1.086 4.649,1.719 0.5,-1.571 1.445,-3.172 3.437,-4.0121 0.117,-0.0507 0.235,-0.0976 0.352,-0.125 0.027,-0.2851 0.039,-0.5898 0.058,-0.9101 0.086,-3.9375 -0.339,-5.8594 -2.109,-9.3672" /><path
         id="path20"
         style="fill:none;stroke:#231f20;stroke-width:1.5;stroke-linecap:butt;stroke-linejoin:miter;stroke-miterlimit:10;stroke-dasharray:none;stroke-opacity:1"
         d="m 283.633,108.348 c -0.254,1.769 -1.094,5.129 -4.727,5.129 -1.816,0 -3.23,-1.047 -4.238,-1.954 -0.684,-0.558 -3.418,-1.476 -5.059,-2.043 -3.23,-1.074 -5.273,-1.804 -6.621,-3.054 -2.011,-1.848 -2.129,-4.387 -2.187,-5.891 -0.02,-0.371 -0.02,-0.7381 -0.039,-0.9569 -0.086,-0.1758 -0.723,-0.625 -1.106,-0.8984 -1.109,-0.7891 -2.644,-1.875 -3.609,-3.8281 -0.266,-0.5157 -0.461,-1.0235 -0.656,-1.5118 0,-0.0117 0,-0.0195 -0.02,-0.039 -8.769,0.293 -11.836,-7.6875 -13.918,-12.9102 l -0.242,-0.5937 c -0.762,-1.9258 -1.895,-3.2461 -3.477,-5.0625 l -0.566,-0.6641 c -1.504,-1.7344 -2.148,-3.582 -2.676,-5.0664 -0.312,-0.8711 -0.586,-1.6328 -0.969,-2.2383 -0.203,-0.3125 -0.574,-0.4375 -2.207,-0.7695 l -0.496,-0.1094 c -1.113,-0.2344 -2.617,-1.0156 -3.476,-3.4062 -0.078,-0.2149 -1.895,-5.3242 0.234,-8 1.192,-1.5039 4.258,-3.125 9.758,-1.336 1.316,0.418 3.055,0.75 4.676,0.8789 -0.508,-2.2656 -0.574,-4.7656 0.676,-6.7109 1.042,-1.6406 2.847,-2.5781 4.929,-2.5781 0.098,0 0.481,0.0117 0.586,0.0195 2.317,0.168 4.629,0.793 6.68,1.332 0.644,0.1641 1.289,0.3477 1.933,0.4961 1.954,0.4766 3.204,2.0782 4.903,4.4727 0.234,0.3125 0.41,0.5742 0.547,0.7422 1.281,1.5117 2.531,3.0664 3.757,4.6367 2.336,2.9492 4.68,6.125 6.985,9.4141 4.734,6.7968 8.847,13.6054 12.219,20.2656 2.351,4.6406 3.054,7.793 2.918,13.2617 -0.196,6.387 -2.364,8.484 -4.512,8.973 z m -5.215,-18.7894 c -3.215,-6.3359 -7.148,-12.8398 -11.68,-19.3359 -2.207,-3.1836 -4.472,-6.2305 -6.699,-9.0625 -1.184,-1.4922 -2.383,-2.9766 -3.601,-4.4336 -0.227,-0.2618 -0.559,-0.711 -0.942,-1.2383 -0.293,-0.4297 -0.848,-1.211 -1.238,-1.6719 -0.442,-0.1172 -0.899,-0.2305 -1.348,-0.3516 -1.113,-0.2929 -2.258,-0.6054 -3.34,-0.8085 0.188,0.7109 0.469,1.5703 0.86,2.4101 0.625,1.3672 0.515,2.9219 -0.274,4.1719 -1.426,2.207 -4.258,2.5 -6.582,2.5 -1.465,0 -3.078,-0.1563 -4.636,-0.3985 0.371,0.3985 0.73,0.8477 1.062,1.375 0.82,1.3165 1.27,2.5977 1.68,3.7188 0.39,1.125 0.703,1.9922 1.289,2.6562 l 0.547,0.6563 c 1.75,2.0117 3.554,4.1016 4.785,7.207 l 0.254,0.625 c 1.941,4.8828 3.437,8.086 6.816,8.086 h 0.02 c 0.214,-0.0196 0.429,-0.0196 0.632,-0.0196 4.536,0 5.891,3.418 6.477,4.8907 0.117,0.2851 0.234,0.6054 0.391,0.9296 0.117,0.2227 0.722,0.6446 1.191,0.9844 1.094,0.7813 2.598,1.8555 3.547,3.7696 0.262,0.539 0.445,1.0937 0.574,1.75 0.137,0.6835 0.195,1.4531 0.227,2.2262 0.008,0.227 0.027,0.508 0.039,0.75 0.84,0.395 2.437,0.93 3.562,1.309 1.66,0.547 3.262,1.086 4.649,1.719 0.5,-1.571 1.445,-3.172 3.437,-4.0121 0.117,-0.0507 0.235,-0.0976 0.352,-0.125 0.027,-0.2851 0.039,-0.5898 0.058,-0.9101 0.086,-3.9375 -0.339,-5.8594 -2.109,-9.3672 z" /><path
         id="path22"
         style="fill:#231f20;fill-opacity:1;fill-rule:nonzero;stroke:none"
         d="m 285.098,201.895 c -2.266,-1.106 -11.946,1.023 -14.18,2.488 -1.992,2.258 -6.094,2.109 -8.074,0.84 -2.074,-1.336 -2.688,-3.875 -1.457,-6.035 4.812,-8.407 8.093,-18.954 3.926,-22.184 -0.606,-0.461 -1.629,-0.832 -2.715,-1.223 -1.953,-0.703 -4.383,-1.57 -6.211,-3.664 -4.18,-4.832 -0.899,-9.48 0.683,-11.707 0.301,-0.41 0.606,-0.832 0.86,-1.25 1.367,-2.156 2.89,-7.441 2.109,-10.039 -0.176,-0.586 -0.371,-0.664 -0.437,-0.695 -2.004,-0.887 -4.629,4.797 -6.047,7.844 -0.672,1.445 -1.27,2.695 -1.875,3.679 -0.274,0.449 -1.297,1.739 -2.625,3.379 -1.692,2.082 -5.45,6.731 -6.543,8.637 -0.032,0.711 -0.266,1.422 -0.715,2.058 -1.231,1.707 -3.606,2.11 -5.332,0.887 -6.145,-4.394 -11.367,-8.73 -12.871,-17.422 -0.762,-4.363 1.211,-8.672 2.812,-12.136 0.02,-0.051 0.039,-0.118 0.078,-0.176 -2.324,1.66 -4.992,4.336 -5.566,6.074 -0.391,1.16 0.02,3.289 0.41,5.352 0.527,2.761 1.121,5.898 0.242,8.847 -1.531,5.156 -4.695,7.723 -7.761,10.203 -0.586,0.489 -1.192,0.969 -1.805,1.496 l -1.496,1.309 c -4.199,3.719 -9.981,8.84 -16.824,8.289 -1.575,-0.117 -4.512,-0.34 -5.5,-3.066 -0.938,-2.606 0.925,-4.442 1.828,-5.321 0.359,-0.363 0.816,-0.793 1.226,-1.339 0.801,-1.094 1.633,-2.207 -2.058,-5.118 -0.723,-0.562 -1.426,-1.172 -2.141,-1.797 -2.437,-2.117 -4.07,-3.433 -5.523,-3.308 -1.321,0.605 -3.664,5.418 -4.778,7.742 -0.976,1.984 -1.883,3.84 -2.851,5.352 -2.051,3.183 -7.801,4.718 -11.848,3.136 -3.434,-1.339 -5.137,-4.648 -4.441,-8.625 0.605,-3.418 2.558,-6.933 4.297,-10.047 0.449,-0.808 0.886,-1.582 1.257,-2.296 l 0.586,-1.18 c 2.024,-4.094 5.403,-10.93 11.567,-10.996 1.289,0.008 2.437,0.39 3.582,0.84 -0.43,-1.543 -1.289,-3.743 -2.637,-6.184 -1.66,-2.996 -3.895,-5.691 -6.277,-8.562 l -2.524,-3.067 c -5.429,-6.66 -10.554,-12.949 -9.422,-23.781 0.078,-0.828 0.227,-1.699 0.371,-2.578 0.364,-2.246 0.704,-4.363 -0.019,-5.684 -0.391,-0.75 -1.289,-1.2772 -2.695,-2.0779 -1.055,-0.5977 -2.246,-1.2891 -3.379,-2.2461 -3.028,-2.6094 -3.953,-5.3321 -4.856,-8.6446 -1.023,-3.75 -2.429,-5.4101 -4.754,-8.1523 -0.691,-0.8125 -1.425,-1.6602 -2.187,-2.6289 l -1.055,-1.3359 c -2.246,-2.9024 -6.015,-7.7735 -9.004,-7.5118 -2.324,0.1758 -3.41,2.7071 -4.961,8.3125 -0.554,2.0391 -1.093,3.9649 -1.902,5.625 -0.52,1.0938 -0.805,2.5899 -1.098,4.1875 -0.281,1.5821 -0.574,3.2227 -1.179,4.8555 l -0.657,1.7578 c -0.945,2.4531 -1.765,4.5703 -1.687,6.6875 0.066,1.9337 0.508,3.8987 0.969,5.9567 0.757,3.399 1.609,7.246 0.82,11.477 -0.512,2.781 -1.582,5.215 -2.609,7.559 -1.067,2.41 -2.051,4.687 -2.247,6.953 l -0.058,0.769 c -0.418,5.156 -1.035,12.969 -6.738,16.711 -5.254,3.445 -11.309,1.348 -15.7231,-0.187 -1.2812,-0.438 -2.5,-0.868 -3.6328,-1.121 -3.8672,-0.911 -7.0898,2.996 -10.7617,9.128 -0.3321,0.559 -0.6836,1.114 -1.0352,1.672 -1.6406,2.598 -2.6484,4.285 -2.3242,6.172 0.1484,0.938 0.625,1.942 1.1719,3.106 0.9687,2.011 2.1484,4.519 1.9336,7.644 -0.5352,7.656 5.4883,13.711 8.1054,15.957 2.6954,2.324 4.2188,4.778 5.7032,7.149 0.6836,1.086 1.3867,2.199 2.2265,3.339 3.0274,3.985 12.4804,6.926 17.7734,5.5 1.68,-0.449 2.988,-1.757 4.649,-3.41 0.566,-0.566 1.132,-1.132 1.718,-1.668 6.856,-6.3 14.422,-6.828 20.93,-6.515 1.512,0.078 3.113,-0.028 4.793,-0.145 2.07,-0.148 4.199,-0.293 6.387,-0.129 2.07,0.176 7.011,0.989 8.613,4.903 0.547,1.339 1.062,4.035 -1.621,7.129 -2.649,3.046 -6.746,4.953 -10.371,6.64 -1.641,0.762 -3.184,1.496 -4.395,2.207 -1.387,0.852 -3.164,0.703 -4.414,-0.332 -1.086,-0.918 -2.195,-1.308 -3.262,-1.211 -1.269,0.117 -2.578,0.938 -3.711,2.297 -1.042,1.277 -2.792,1.727 -4.343,1.133 -0.93,-0.371 -1.008,-0.402 -3.364,2.019 -8.093,8.332 -14.05,2.61 -17.632,-0.808 -1.965,-1.887 -3.821,-3.652 -6.008,-4.231 -0.215,-0.058 -0.371,-0.078 -0.43,-0.097 -0.1249,0.312 -0.2733,1.144 0.078,2.246 0.352,1.086 1.153,2.129 2.52,3.312 0.722,0.614 1.543,1.121 2.402,1.66 2.852,1.739 7.617,4.668 4.707,12.45 -0.488,1.34 -1.445,2.441 -2.422,3.476 0.684,0.266 1.348,0.578 1.953,1.067 1.25,0.976 2.051,2.168 2.688,3.222 2.5,-3.925 5.359,-7.843 9.383,-7.199 2.578,0.41 4.343,2.473 5.261,6.145 0.168,0.672 0.325,1.172 0.454,1.562 0.789,2.508 0.652,3.848 -0.696,6.492 -0.058,0.11 -0.097,0.227 -0.156,0.325 0.078,0.027 0.156,0.058 0.242,0.097 2.824,1.16 5.117,2.696 7.336,4.168 1.211,0.813 2.422,1.621 3.75,2.375 3.887,2.207 7.852,2.567 11.797,1.121 0.891,-0.332 1.738,-0.703 2.566,-1.074 3.457,-1.512 7.375,-3.211 12.434,-1.758 1.68,0.481 3.535,0.637 5.508,0.801 1.726,0.148 3.535,0.293 5.371,0.676 2.402,0.508 4.492,1.484 6.34,2.351 1.355,0.625 2.644,1.231 3.914,1.602 0.469,0.129 1.055,0.215 1.699,0.324 2.313,0.391 5.203,0.879 7.09,2.774 0.527,0.515 0.898,1.035 1.191,1.531 0.098,-0.047 0.196,-0.106 0.293,-0.156 0.789,-0.418 1.621,-0.887 2.489,-1.368 3.019,-1.668 6.437,-3.562 9.574,-4.539 4.734,-1.476 9.617,-1.543 14.324,-1.465 4.609,-0.019 8.918,0.008 12.754,-1.32 2.871,-0.996 12.773,-3.086 13.203,-3.172 2.051,-0.441 4.082,0.887 4.531,2.95 0.43,2.058 -0.898,4.089 -2.949,4.519 -3.809,0.813 -10.508,2.316 -12.305,2.922 -5.047,1.738 -10.273,1.726 -15.254,1.738 -4.355,-0.012 -8.418,-0.012 -12.031,1.121 -2.402,0.754 -5.449,2.442 -8.137,3.926 -0.925,0.508 -1.804,0.996 -2.625,1.438 -0.41,0.203 -0.82,0.449 -1.23,0.671 -3.086,1.758 -8.223,4.68 -13.281,0.793 -1.016,-0.781 -1.574,-2.023 -1.485,-3.3 0.039,-0.684 0.286,-1.34 0.664,-1.887 -0.214,-0.047 -0.418,-0.106 -0.605,-0.164 -1.875,-0.527 -3.496,-1.289 -5.066,-2.024 -1.614,-0.761 -3.137,-1.472 -4.641,-1.785 -1.406,-0.285 -2.891,-0.41 -4.473,-0.547 -2.246,-0.187 -4.55,-0.382 -6.953,-1.074 -2.336,-0.664 -4.101,0.028 -7.285,1.426 -0.957,0.418 -1.934,0.848 -2.969,1.23 -6.054,2.247 -12.363,1.68 -18.222,-1.64 -1.485,-0.84 -2.852,-1.75 -4.219,-2.668 -1.992,-1.328 -3.875,-2.578 -5.996,-3.457 -1.778,-0.731 -4.219,-1.727 -5.156,-4.227 -0.879,-2.363 0.097,-4.601 1.164,-6.711 0.105,-0.222 0.203,-0.398 0.269,-0.554 -0.008,-0.059 -0.035,-0.118 -0.066,-0.188 -0.039,-0.156 -0.098,-0.332 -0.157,-0.508 -0.742,1.055 -1.496,2.278 -1.992,3.059 -0.918,1.492 -1.66,2.676 -2.383,3.476 -1.074,1.172 -2.785,1.543 -4.257,0.957 -2.911,-1.183 -4.239,-3.507 -5.196,-5.207 -0.437,-0.781 -0.847,-1.503 -1.015,-1.66 -0.266,-0.136 -0.633,-0.234 -1.016,-0.351 -1.836,-0.594 -5.2734,-1.699 -5.6327,-5.223 -0.2852,-2.766 1.6796,-4.816 3.2497,-6.465 0.449,-0.461 1.133,-1.164 1.231,-1.308 0.515,-1.379 0.41,-1.875 0.41,-1.875 -0.176,-0.313 -1.25,-0.969 -1.953,-1.418 -1.035,-0.625 -2.2073,-1.348 -3.3987,-2.364 -2.5,-2.148 -4.0351,-4.316 -4.8125,-6.804 -1.0078,-3.203 -0.6953,-6.438 0.8203,-8.789 -1.9843,-1.231 -3.7304,-2.715 -5.0234,-4.434 -1.0039,-1.32 -1.8242,-2.629 -2.625,-3.898 -1.2695,-2.059 -2.3828,-3.829 -4.1992,-5.399 -7.375,-6.34 -11.2891,-14.465 -10.7422,-22.277 0.0781,-1.082 -0.4102,-2.156 -1.211,-3.848 -0.7031,-1.465 -1.4843,-3.133 -1.8164,-5.137 -0.8007,-4.851 1.543,-8.535 3.418,-11.503 0.3125,-0.489 0.625,-0.997 0.9258,-1.504 2.9141,-4.864 8.957,-14.969 19.0351,-12.657 1.379,0.325 2.8711,0.832 4.4141,1.36 3.3984,1.179 6.9261,2.402 9.0311,1.015 2.57,-1.699 3.02,-7.257 3.32,-10.937 l 0.059,-0.801 c 0.297,-3.516 1.652,-6.633 2.856,-9.367 0.894,-2.051 1.746,-3.992 2.109,-5.899 0.496,-2.695 -0.09,-5.351 -0.774,-8.417 -0.515,-2.313 -1.054,-4.708 -1.152,-7.3325 -0.129,-3.6914 1.106,-6.8946 2.188,-9.7071 l 0.625,-1.6328 c 0.371,-1.0234 0.605,-2.2851 0.839,-3.6015 0.352,-1.9453 0.75,-4.1407 1.739,-6.1719 0.508,-1.0274 0.937,-2.6289 1.406,-4.3281 1.465,-5.2735 3.672,-13.2305 11.68,-13.8946 0.312,-0.0195 0.605,-0.0312 0.898,-0.0312 6.668,0 11.524,6.2695 14.785,10.4883 l 0.977,1.2617 c 0.723,0.8984 1.406,1.6875 2.031,2.4336 2.609,3.0547 4.856,5.6992 6.328,11.1015 0.703,2.586 1.094,3.6797 2.461,4.8555 0.567,0.4766 1.348,0.9258 2.168,1.3828 1.875,1.0781 4.192,2.3946 5.645,5.0899 1.965,3.6214 1.328,7.4614 0.84,10.5544 -0.125,0.723 -0.247,1.457 -0.313,2.149 -0.801,7.668 2.598,11.836 7.754,18.144 l 2.473,3.039 c 2.488,2.996 5.066,6.094 7.078,9.727 3.086,5.566 5.918,13.027 1.855,16.894 -2.637,2.528 -6.133,1.114 -8.222,0.282 -0.508,-0.203 -0.997,-0.438 -1.18,-0.508 -0.676,0.012 -2.055,1.191 -4.797,6.75 l -0.652,1.308 c -0.403,0.782 -0.871,1.622 -1.379,2.508 -1.348,2.453 -3.047,5.5 -3.438,7.656 -0.019,0.098 -0.019,0.188 -0.019,0.254 0.683,0.11 1.941,-0.097 2.5,-0.449 0.691,-1.113 1.465,-2.683 2.265,-4.344 2.774,-5.695 5.645,-11.582 10.867,-11.964 5.032,-0.418 8.508,2.668 11.321,5.117 0.605,0.539 1.23,1.078 1.855,1.562 5.528,4.356 6.133,8.574 5.371,11.684 2.149,-1.301 4.297,-3.195 6.172,-4.856 l 1.571,-1.379 c 0.675,-0.574 1.332,-1.113 1.972,-1.628 2.649,-2.149 4.406,-3.567 5.266,-6.465 0.344,-1.164 -0.059,-3.235 -0.43,-5.235 -0.558,-2.882 -1.191,-6.144 -0.156,-9.211 1.484,-4.421 7.617,-10.332 12.617,-12.168 3.137,-1.14 5.274,-0.488 6.516,0.254 4.597,2.786 2.156,8.106 0.535,11.633 -1.152,2.5 -2.578,5.625 -2.227,7.645 0.782,4.445 2.879,7.109 6.192,9.804 1.289,-1.804 3.164,-4.187 5.82,-7.468 1.016,-1.262 1.824,-2.246 2.09,-2.629 0.41,-0.672 0.879,-1.688 1.418,-2.84 2.332,-5.039 7.215,-15.52 16.062,-11.602 2.266,1.004 3.875,2.899 4.649,5.457 1.621,5.395 -0.801,12.942 -2.969,16.352 -0.332,0.523 -0.703,1.051 -1.074,1.57 -0.469,0.672 -1.262,1.785 -1.133,2.274 0.508,0.597 1.719,1.027 2.988,1.496 1.543,0.547 3.282,1.16 4.844,2.371 7.598,5.91 4.785,17.207 1.465,25.039 5.969,-1.961 14.199,-2.899 17.812,-0.488 1.758,1.164 2.254,3.554 1.082,5.312 -1.16,1.75 -3.523,2.238 -5.261,1.067 m -166.211,12.957 c 1.894,-1.954 4.629,-4.727 8.808,-4.258 2.11,-1.875 4.59,-3.016 7.168,-3.25 2.285,-0.196 4.551,0.273 6.629,1.426 0.949,-0.489 1.946,-0.95 2.922,-1.399 2.52,-1.18 5.332,-2.488 7.051,-3.984 -0.305,-0.067 -0.652,-0.117 -1.055,-0.145 -1.621,-0.148 -3.39,-0.012 -5.254,0.117 -1.386,0.086 -2.812,0.196 -4.277,0.196 -0.481,0 -0.945,-0.02 -1.414,-0.039 -7.055,-0.371 -11.535,0.964 -15.395,4.511 -0.515,0.469 -1.004,0.957 -1.492,1.446 -2.051,2.058 -4.394,4.394 -8.058,5.39 -0.497,0.125 -1.004,0.235 -1.551,0.321 2.754,2.578 3.242,2.433 5.918,-0.332" /><path
         id="path24"
         style="fill:none;stroke:#231f20;stroke-width:1.5;stroke-linecap:butt;stroke-linejoin:miter;stroke-miterlimit:10;stroke-dasharray:none;stroke-opacity:1"
         d="m 285.098,201.895 c -2.266,-1.106 -11.946,1.023 -14.18,2.488 -1.992,2.258 -6.094,2.109 -8.074,0.84 -2.074,-1.336 -2.688,-3.875 -1.457,-6.035 4.812,-8.407 8.093,-18.954 3.926,-22.184 -0.606,-0.461 -1.629,-0.832 -2.715,-1.223 -1.953,-0.703 -4.383,-1.57 -6.211,-3.664 -4.18,-4.832 -0.899,-9.48 0.683,-11.707 0.301,-0.41 0.606,-0.832 0.86,-1.25 1.367,-2.156 2.89,-7.441 2.109,-10.039 -0.176,-0.586 -0.371,-0.664 -0.437,-0.695 -2.004,-0.887 -4.629,4.797 -6.047,7.844 -0.672,1.445 -1.27,2.695 -1.875,3.679 -0.274,0.449 -1.297,1.739 -2.625,3.379 -1.692,2.082 -5.45,6.731 -6.543,8.637 -0.032,0.711 -0.266,1.422 -0.715,2.058 -1.231,1.707 -3.606,2.11 -5.332,0.887 -6.145,-4.394 -11.367,-8.73 -12.871,-17.422 -0.762,-4.363 1.211,-8.672 2.812,-12.136 0.02,-0.051 0.039,-0.118 0.078,-0.176 -2.324,1.66 -4.992,4.336 -5.566,6.074 -0.391,1.16 0.02,3.289 0.41,5.352 0.527,2.761 1.121,5.898 0.242,8.847 -1.531,5.156 -4.695,7.723 -7.761,10.203 -0.586,0.489 -1.192,0.969 -1.805,1.496 l -1.496,1.309 c -4.199,3.719 -9.981,8.84 -16.824,8.289 -1.575,-0.117 -4.512,-0.34 -5.5,-3.066 -0.938,-2.606 0.925,-4.442 1.828,-5.321 0.359,-0.363 0.816,-0.793 1.226,-1.339 0.801,-1.094 1.633,-2.207 -2.058,-5.118 -0.723,-0.562 -1.426,-1.172 -2.141,-1.797 -2.437,-2.117 -4.07,-3.433 -5.523,-3.308 -1.321,0.605 -3.664,5.418 -4.778,7.742 -0.976,1.984 -1.883,3.84 -2.851,5.352 -2.051,3.183 -7.801,4.718 -11.848,3.136 -3.434,-1.339 -5.137,-4.648 -4.441,-8.625 0.605,-3.418 2.558,-6.933 4.297,-10.047 0.449,-0.808 0.886,-1.582 1.257,-2.296 l 0.586,-1.18 c 2.024,-4.094 5.403,-10.93 11.567,-10.996 1.289,0.008 2.437,0.39 3.582,0.84 -0.43,-1.543 -1.289,-3.743 -2.637,-6.184 -1.66,-2.996 -3.895,-5.691 -6.277,-8.562 l -2.524,-3.067 c -5.429,-6.66 -10.554,-12.949 -9.422,-23.781 0.078,-0.828 0.227,-1.699 0.371,-2.578 0.364,-2.246 0.704,-4.363 -0.019,-5.684 -0.391,-0.75 -1.289,-1.2772 -2.695,-2.0779 -1.055,-0.5977 -2.246,-1.2891 -3.379,-2.2461 -3.028,-2.6094 -3.953,-5.3321 -4.856,-8.6446 -1.023,-3.75 -2.429,-5.4101 -4.754,-8.1523 -0.691,-0.8125 -1.425,-1.6602 -2.187,-2.6289 l -1.055,-1.3359 c -2.246,-2.9024 -6.015,-7.7735 -9.004,-7.5118 -2.324,0.1758 -3.41,2.7071 -4.961,8.3125 -0.554,2.0391 -1.093,3.9649 -1.902,5.625 -0.52,1.0938 -0.805,2.5899 -1.098,4.1875 -0.281,1.5821 -0.574,3.2227 -1.179,4.8555 l -0.657,1.7578 c -0.945,2.4531 -1.765,4.5703 -1.687,6.6875 0.066,1.9337 0.508,3.8987 0.969,5.9567 0.757,3.399 1.609,7.246 0.82,11.477 -0.512,2.781 -1.582,5.215 -2.609,7.559 -1.067,2.41 -2.051,4.687 -2.247,6.953 l -0.058,0.769 c -0.418,5.156 -1.035,12.969 -6.738,16.711 -5.254,3.445 -11.309,1.348 -15.7231,-0.187 -1.2812,-0.438 -2.5,-0.868 -3.6328,-1.121 -3.8672,-0.911 -7.0898,2.996 -10.7617,9.128 -0.3321,0.559 -0.6836,1.114 -1.0352,1.672 -1.6406,2.598 -2.6484,4.285 -2.3242,6.172 0.1484,0.938 0.625,1.942 1.1719,3.106 0.9687,2.011 2.1484,4.519 1.9336,7.644 -0.5352,7.656 5.4883,13.711 8.1054,15.957 2.6954,2.324 4.2188,4.778 5.7032,7.149 0.6836,1.086 1.3867,2.199 2.2265,3.339 3.0274,3.985 12.4804,6.926 17.7734,5.5 1.68,-0.449 2.988,-1.757 4.649,-3.41 0.566,-0.566 1.132,-1.132 1.718,-1.668 6.856,-6.3 14.422,-6.828 20.93,-6.515 1.512,0.078 3.113,-0.028 4.793,-0.145 2.07,-0.148 4.199,-0.293 6.387,-0.129 2.07,0.176 7.011,0.989 8.613,4.903 0.547,1.339 1.062,4.035 -1.621,7.129 -2.649,3.046 -6.746,4.953 -10.371,6.64 -1.641,0.762 -3.184,1.496 -4.395,2.207 -1.387,0.852 -3.164,0.703 -4.414,-0.332 -1.086,-0.918 -2.195,-1.308 -3.262,-1.211 -1.269,0.117 -2.578,0.938 -3.711,2.297 -1.042,1.277 -2.792,1.727 -4.343,1.133 -0.93,-0.371 -1.008,-0.402 -3.364,2.019 -8.093,8.332 -14.05,2.61 -17.632,-0.808 -1.965,-1.887 -3.821,-3.652 -6.008,-4.231 -0.215,-0.058 -0.371,-0.078 -0.43,-0.097 -0.1249,0.312 -0.2733,1.144 0.078,2.246 0.352,1.086 1.153,2.129 2.52,3.312 0.722,0.614 1.543,1.121 2.402,1.66 2.852,1.739 7.617,4.668 4.707,12.45 -0.488,1.34 -1.445,2.441 -2.422,3.476 0.684,0.266 1.348,0.578 1.953,1.067 1.25,0.976 2.051,2.168 2.688,3.222 2.5,-3.925 5.359,-7.843 9.383,-7.199 2.578,0.41 4.343,2.473 5.261,6.145 0.168,0.672 0.325,1.172 0.454,1.562 0.789,2.508 0.652,3.848 -0.696,6.492 -0.058,0.11 -0.097,0.227 -0.156,0.325 0.078,0.027 0.156,0.058 0.242,0.097 2.824,1.16 5.117,2.696 7.336,4.168 1.211,0.813 2.422,1.621 3.75,2.375 3.887,2.207 7.852,2.567 11.797,1.121 0.891,-0.332 1.738,-0.703 2.566,-1.074 3.457,-1.512 7.375,-3.211 12.434,-1.758 1.68,0.481 3.535,0.637 5.508,0.801 1.726,0.148 3.535,0.293 5.371,0.676 2.402,0.508 4.492,1.484 6.34,2.351 1.355,0.625 2.644,1.231 3.914,1.602 0.469,0.129 1.055,0.215 1.699,0.324 2.313,0.391 5.203,0.879 7.09,2.774 0.527,0.515 0.898,1.035 1.191,1.531 0.098,-0.047 0.196,-0.106 0.293,-0.156 0.789,-0.418 1.621,-0.887 2.489,-1.368 3.019,-1.668 6.437,-3.562 9.574,-4.539 4.734,-1.476 9.617,-1.543 14.324,-1.465 4.609,-0.019 8.918,0.008 12.754,-1.32 2.871,-0.996 12.773,-3.086 13.203,-3.172 2.051,-0.441 4.082,0.887 4.531,2.95 0.43,2.058 -0.898,4.089 -2.949,4.519 -3.809,0.813 -10.508,2.316 -12.305,2.922 -5.047,1.738 -10.273,1.726 -15.254,1.738 -4.355,-0.012 -8.418,-0.012 -12.031,1.121 -2.402,0.754 -5.449,2.442 -8.137,3.926 -0.925,0.508 -1.804,0.996 -2.625,1.438 -0.41,0.203 -0.82,0.449 -1.23,0.671 -3.086,1.758 -8.223,4.68 -13.281,0.793 -1.016,-0.781 -1.574,-2.023 -1.485,-3.3 0.039,-0.684 0.286,-1.34 0.664,-1.887 -0.214,-0.047 -0.418,-0.106 -0.605,-0.164 -1.875,-0.527 -3.496,-1.289 -5.066,-2.024 -1.614,-0.761 -3.137,-1.472 -4.641,-1.785 -1.406,-0.285 -2.891,-0.41 -4.473,-0.547 -2.246,-0.187 -4.55,-0.382 -6.953,-1.074 -2.336,-0.664 -4.101,0.028 -7.285,1.426 -0.957,0.418 -1.934,0.848 -2.969,1.23 -6.054,2.247 -12.363,1.68 -18.222,-1.64 -1.485,-0.84 -2.852,-1.75 -4.219,-2.668 -1.992,-1.328 -3.875,-2.578 -5.996,-3.457 -1.778,-0.731 -4.219,-1.727 -5.156,-4.227 -0.879,-2.363 0.097,-4.601 1.164,-6.711 0.105,-0.222 0.203,-0.398 0.269,-0.554 -0.008,-0.059 -0.035,-0.118 -0.066,-0.188 -0.039,-0.156 -0.098,-0.332 -0.157,-0.508 -0.742,1.055 -1.496,2.278 -1.992,3.059 -0.918,1.492 -1.66,2.676 -2.383,3.476 -1.074,1.172 -2.785,1.543 -4.257,0.957 -2.911,-1.183 -4.239,-3.507 -5.196,-5.207 -0.437,-0.781 -0.847,-1.503 -1.015,-1.66 -0.266,-0.136 -0.633,-0.234 -1.016,-0.351 -1.836,-0.594 -5.2734,-1.699 -5.6327,-5.223 -0.2852,-2.766 1.6796,-4.816 3.2497,-6.465 0.449,-0.461 1.133,-1.164 1.231,-1.308 0.515,-1.379 0.41,-1.875 0.41,-1.875 -0.176,-0.313 -1.25,-0.969 -1.953,-1.418 -1.035,-0.625 -2.2073,-1.348 -3.3987,-2.364 -2.5,-2.148 -4.0351,-4.316 -4.8125,-6.804 -1.0078,-3.203 -0.6953,-6.438 0.8203,-8.789 -1.9843,-1.231 -3.7304,-2.715 -5.0234,-4.434 -1.0039,-1.32 -1.8242,-2.629 -2.625,-3.898 -1.2695,-2.059 -2.3828,-3.829 -4.1992,-5.399 -7.375,-6.34 -11.2891,-14.465 -10.7422,-22.277 0.0781,-1.082 -0.4102,-2.156 -1.211,-3.848 -0.7031,-1.465 -1.4843,-3.133 -1.8164,-5.137 -0.8007,-4.851 1.543,-8.535 3.418,-11.503 0.3125,-0.489 0.625,-0.997 0.9258,-1.504 2.9141,-4.864 8.957,-14.969 19.0351,-12.657 1.379,0.325 2.8711,0.832 4.4141,1.36 3.3984,1.179 6.9261,2.402 9.0311,1.015 2.57,-1.699 3.02,-7.257 3.32,-10.937 l 0.059,-0.801 c 0.297,-3.516 1.652,-6.633 2.856,-9.367 0.894,-2.051 1.746,-3.992 2.109,-5.899 0.496,-2.695 -0.09,-5.351 -0.774,-8.417 -0.515,-2.313 -1.054,-4.708 -1.152,-7.3325 -0.129,-3.6914 1.106,-6.8946 2.188,-9.7071 l 0.625,-1.6328 c 0.371,-1.0234 0.605,-2.2851 0.839,-3.6015 0.352,-1.9453 0.75,-4.1407 1.739,-6.1719 0.508,-1.0274 0.937,-2.6289 1.406,-4.3281 1.465,-5.2735 3.672,-13.2305 11.68,-13.8946 0.312,-0.0195 0.605,-0.0312 0.898,-0.0312 6.668,0 11.524,6.2695 14.785,10.4883 l 0.977,1.2617 c 0.723,0.8984 1.406,1.6875 2.031,2.4336 2.609,3.0547 4.856,5.6992 6.328,11.1015 0.703,2.586 1.094,3.6797 2.461,4.8555 0.567,0.4766 1.348,0.9258 2.168,1.3828 1.875,1.0781 4.192,2.3946 5.645,5.0899 1.965,3.6214 1.328,7.4614 0.84,10.5544 -0.125,0.723 -0.247,1.457 -0.313,2.149 -0.801,7.668 2.598,11.836 7.754,18.144 l 2.473,3.039 c 2.488,2.996 5.066,6.094 7.078,9.727 3.086,5.566 5.918,13.027 1.855,16.894 -2.637,2.528 -6.133,1.114 -8.222,0.282 -0.508,-0.203 -0.997,-0.438 -1.18,-0.508 -0.676,0.012 -2.055,1.191 -4.797,6.75 l -0.652,1.308 c -0.403,0.782 -0.871,1.622 -1.379,2.508 -1.348,2.453 -3.047,5.5 -3.438,7.656 -0.019,0.098 -0.019,0.188 -0.019,0.254 0.683,0.11 1.941,-0.097 2.5,-0.449 0.691,-1.113 1.465,-2.683 2.265,-4.344 2.774,-5.695 5.645,-11.582 10.867,-11.964 5.032,-0.418 8.508,2.668 11.321,5.117 0.605,0.539 1.23,1.078 1.855,1.562 5.528,4.356 6.133,8.574 5.371,11.684 2.149,-1.301 4.297,-3.195 6.172,-4.856 l 1.571,-1.379 c 0.675,-0.574 1.332,-1.113 1.972,-1.628 2.649,-2.149 4.406,-3.567 5.266,-6.465 0.344,-1.164 -0.059,-3.235 -0.43,-5.235 -0.558,-2.882 -1.191,-6.144 -0.156,-9.211 1.484,-4.421 7.617,-10.332 12.617,-12.168 3.137,-1.14 5.274,-0.488 6.516,0.254 4.597,2.786 2.156,8.106 0.535,11.633 -1.152,2.5 -2.578,5.625 -2.227,7.645 0.782,4.445 2.879,7.109 6.192,9.804 1.289,-1.804 3.164,-4.187 5.82,-7.468 1.016,-1.262 1.824,-2.246 2.09,-2.629 0.41,-0.672 0.879,-1.688 1.418,-2.84 2.332,-5.039 7.215,-15.52 16.062,-11.602 2.266,1.004 3.875,2.899 4.649,5.457 1.621,5.395 -0.801,12.942 -2.969,16.352 -0.332,0.523 -0.703,1.051 -1.074,1.57 -0.469,0.672 -1.262,1.785 -1.133,2.274 0.508,0.597 1.719,1.027 2.988,1.496 1.543,0.547 3.282,1.16 4.844,2.371 7.598,5.91 4.785,17.207 1.465,25.039 5.969,-1.961 14.199,-2.899 17.812,-0.488 1.758,1.164 2.254,3.554 1.082,5.312 -1.16,1.75 -3.523,2.238 -5.261,1.067 z m -166.211,12.957 c 1.894,-1.954 4.629,-4.727 8.808,-4.258 2.11,-1.875 4.59,-3.016 7.168,-3.25 2.285,-0.196 4.551,0.273 6.629,1.426 0.949,-0.489 1.946,-0.95 2.922,-1.399 2.52,-1.18 5.332,-2.488 7.051,-3.984 -0.305,-0.067 -0.652,-0.117 -1.055,-0.145 -1.621,-0.148 -3.39,-0.012 -5.254,0.117 -1.386,0.086 -2.812,0.196 -4.277,0.196 -0.481,0 -0.945,-0.02 -1.414,-0.039 -7.055,-0.371 -11.535,0.964 -15.395,4.511 -0.515,0.469 -1.004,0.957 -1.492,1.446 -2.051,2.058 -4.394,4.394 -8.058,5.39 -0.497,0.125 -1.004,0.235 -1.551,0.321 2.754,2.578 3.242,2.433 5.918,-0.332 z" /><path
         id="path26"
         style="fill:#231f20;fill-opacity:1;fill-rule:nonzero;stroke:none"
         d="m 95.1758,288.699 c -2.0508,-0.125 -3.5235,-1.844 -3.4766,-3.914 0.0391,-1.359 0.8399,-2.539 1.9805,-3.183 -1.5313,-5.782 -12.9766,-21.985 -15.4063,-24.571 -0.8125,-0.754 -3.3125,-2.336 -4.7968,-2.98 -1.7969,1.797 -5.2461,5.488 -6.25,6.797 -0.1368,0.324 -0.3125,0.625 -0.5274,0.91 -1.2969,1.668 -3.6914,1.972 -5.3515,0.683 l -0.0196,-0.011 c -1.0742,-0.828 -2.3633,-1.571 -3.7109,-2.344 -0.8399,-0.496 -1.6992,-0.984 -2.5391,-1.512 -3.8984,-2.48 -4.707,-10.89 -3.8476,-14.629 0.8984,-3.898 3.5156,-4.601 4.5898,-4.718 1.7188,-0.223 3.2539,0.371 4.5039,1.144 0.4766,-1.223 1.1211,-2.57 2.0391,-3.801 -0.3242,-1.386 -1.0156,-3.398 -1.7188,-4.754 -0.5078,0.282 -1.0625,0.469 -1.6523,0.555 -2.8984,0.449 -5.7774,-1.66 -9.2266,-4.441 -0.332,-0.274 -0.6133,-0.5 -0.8203,-0.664 -3.1914,-1.446 -5.625,-3.653 -7.5976,-6.914 -0.4102,-0.657 -0.7813,-1.321 -1.1329,-1.965 -0.9765,-1.719 -1.7968,-3.203 -3.0468,-4.336 -0.9649,-0.879 -2.1094,-1.68 -3.3008,-2.52 -2.3438,-1.64 -4.9805,-3.484 -6.8867,-6.367 -1.7071,-2.586 -2.086,-5.379 -2.4414,-7.84 -0.3399,-2.433 -0.5938,-3.976 -1.5703,-5.011 -5.1172,-5.372 -3.8868,-9.208 -2.5782,-13.262 0.1758,-0.535 0.3633,-1.113 0.5469,-1.738 -0.1172,-0.399 -0.2812,-0.899 -0.4883,-1.426 -1.1523,1.308 -2.6836,2.511 -4.7851,2.765 -1.9024,0.215 -3.7696,-0.351 -5.5664,-1.75 -0.62504,1.133 -1.81645,1.907 -3.19145,1.965 -2.10156,0.02 -3.89844,-1.57 -3.98828,-3.672 -0.20313,-4.609 1.67187,-6.465 3.28125,-7.218 3.625,-1.668 7.07418,1.535 8.20708,2.578 0.1171,0.117 0.2226,0.215 0.3203,0.285 0.3515,-0.418 0.7812,-1.086 1.0547,-1.496 0.871,-1.336 2.3828,-3.672 4.9335,-3.672 0.3868,0 0.8086,0.058 1.2579,0.195 3.9257,1.098 7.2656,10.11 6.5234,12.754 -0.2734,1.027 -0.5781,1.934 -0.8398,2.774 -1.1055,3.441 -1.1407,3.574 0.8398,5.664 2.7227,2.863 3.2227,6.379 3.6016,9.211 0.2734,1.902 0.5,3.543 1.2617,4.695 1.0937,1.672 2.9297,2.949 4.8828,4.308 1.3476,0.957 2.7539,1.934 4.0625,3.145 2.1601,1.961 3.4375,4.219 4.5508,6.219 0.332,0.578 0.6562,1.164 1.0156,1.75 1.2227,2 2.5312,3.191 4.3945,4.004 0.7032,0.293 1.2305,0.73 2.3047,1.601 0.6055,0.496 1.9531,1.582 2.9883,2.266 1.7578,-1.32 3.5547,-1.172 4.3945,-0.988 5.9961,1.281 8.0352,12.597 8.0586,12.714 0.1836,1.047 0.7031,4.219 -1.8672,5.774 -0.039,0.008 -0.0586,0.027 -0.0781,0.039 -0.4492,0.808 -0.8203,1.816 -1.1445,2.742 -0.7305,2.07 -1.5625,4.406 -4.1289,5.109 -0.8282,0.223 -2.4492,0.399 -4.1485,-0.878 0.1446,1.414 0.4649,2.871 0.8477,3.554 0.6445,0.391 1.2891,0.762 1.9336,1.133 0.4492,0.262 0.9101,0.527 1.3672,0.789 3.0547,-3.582 7.4023,-7.441 7.4726,-7.469 4.793,-2.668 13.1133,4.559 13.1914,4.637 0.2344,0.215 21.074,25.578 17.539,33.957 -0.957,2.227 -3.078,3.445 -5.8202,3.328" /><path
         id="path28"
         style="fill:none;stroke:#231f20;stroke-width:1.5;stroke-linecap:butt;stroke-linejoin:miter;stroke-miterlimit:10;stroke-dasharray:none;stroke-opacity:1"
         d="m 95.1758,288.699 c -2.0508,-0.125 -3.5235,-1.844 -3.4766,-3.914 0.0391,-1.359 0.8399,-2.539 1.9805,-3.183 -1.5313,-5.782 -12.9766,-21.985 -15.4063,-24.571 -0.8125,-0.754 -3.3125,-2.336 -4.7968,-2.98 -1.7969,1.797 -5.2461,5.488 -6.25,6.797 -0.1368,0.324 -0.3125,0.625 -0.5274,0.91 -1.2969,1.668 -3.6914,1.972 -5.3515,0.683 l -0.0196,-0.011 c -1.0742,-0.828 -2.3633,-1.571 -3.7109,-2.344 -0.8399,-0.496 -1.6992,-0.984 -2.5391,-1.512 -3.8984,-2.48 -4.707,-10.89 -3.8476,-14.629 0.8984,-3.898 3.5156,-4.601 4.5898,-4.718 1.7188,-0.223 3.2539,0.371 4.5039,1.144 0.4766,-1.223 1.1211,-2.57 2.0391,-3.801 -0.3242,-1.386 -1.0156,-3.398 -1.7188,-4.754 -0.5078,0.282 -1.0625,0.469 -1.6523,0.555 -2.8984,0.449 -5.7774,-1.66 -9.2266,-4.441 -0.332,-0.274 -0.6133,-0.5 -0.8203,-0.664 -3.1914,-1.446 -5.625,-3.653 -7.5976,-6.914 -0.4102,-0.657 -0.7813,-1.321 -1.1329,-1.965 -0.9765,-1.719 -1.7968,-3.203 -3.0468,-4.336 -0.9649,-0.879 -2.1094,-1.68 -3.3008,-2.52 -2.3438,-1.64 -4.9805,-3.484 -6.8867,-6.367 -1.7071,-2.586 -2.086,-5.379 -2.4414,-7.84 -0.3399,-2.433 -0.5938,-3.976 -1.5703,-5.011 -5.1172,-5.372 -3.8868,-9.208 -2.5782,-13.262 0.1758,-0.535 0.3633,-1.113 0.5469,-1.738 -0.1172,-0.399 -0.2812,-0.899 -0.4883,-1.426 -1.1523,1.308 -2.6836,2.511 -4.7851,2.765 -1.9024,0.215 -3.7696,-0.351 -5.5664,-1.75 -0.62504,1.133 -1.81645,1.907 -3.19145,1.965 -2.10156,0.02 -3.89844,-1.57 -3.98828,-3.672 -0.20313,-4.609 1.67187,-6.465 3.28125,-7.218 3.625,-1.668 7.07418,1.535 8.20708,2.578 0.1171,0.117 0.2226,0.215 0.3203,0.285 0.3515,-0.418 0.7812,-1.086 1.0547,-1.496 0.871,-1.336 2.3828,-3.672 4.9335,-3.672 0.3868,0 0.8086,0.058 1.2579,0.195 3.9257,1.098 7.2656,10.11 6.5234,12.754 -0.2734,1.027 -0.5781,1.934 -0.8398,2.774 -1.1055,3.441 -1.1407,3.574 0.8398,5.664 2.7227,2.863 3.2227,6.379 3.6016,9.211 0.2734,1.902 0.5,3.543 1.2617,4.695 1.0937,1.672 2.9297,2.949 4.8828,4.308 1.3476,0.957 2.7539,1.934 4.0625,3.145 2.1601,1.961 3.4375,4.219 4.5508,6.219 0.332,0.578 0.6562,1.164 1.0156,1.75 1.2227,2 2.5312,3.191 4.3945,4.004 0.7032,0.293 1.2305,0.73 2.3047,1.601 0.6055,0.496 1.9531,1.582 2.9883,2.266 1.7578,-1.32 3.5547,-1.172 4.3945,-0.988 5.9961,1.281 8.0352,12.597 8.0586,12.714 0.1836,1.047 0.7031,4.219 -1.8672,5.774 -0.039,0.008 -0.0586,0.027 -0.0781,0.039 -0.4492,0.808 -0.8203,1.816 -1.1445,2.742 -0.7305,2.07 -1.5625,4.406 -4.1289,5.109 -0.8282,0.223 -2.4492,0.399 -4.1485,-0.878 0.1446,1.414 0.4649,2.871 0.8477,3.554 0.6445,0.391 1.2891,0.762 1.9336,1.133 0.4492,0.262 0.9101,0.527 1.3672,0.789 3.0547,-3.582 7.4023,-7.441 7.4726,-7.469 4.793,-2.668 13.1133,4.559 13.1914,4.637 0.2344,0.215 21.074,25.578 17.539,33.957 -0.957,2.227 -3.078,3.445 -5.8202,3.328 z" /><path
         id="path30"
         style="fill:#231f20;fill-opacity:1;fill-rule:nonzero;stroke:none"
         d="m 49.6094,106.531 c 0.8984,3.965 1.3984,7.578 0.8203,12.5 -0.4688,4.153 -1.1328,9.848 -5,13.36 -2.0508,1.855 -4.2852,2.324 -5.918,2.668 -1.6601,0.351 -2.0117,0.476 -2.4804,1.152 -1.8165,2.676 -2.5196,6.043 -3.125,9.519 -0.879,5.149 -3.5352,6.399 -6.3282,7.715 l -0.3906,0.196 c -0.5273,0.246 -1.1797,1.699 -1.6602,2.754 -1.0742,2.382 -2.539,5.636 -6.2695,6.652 -3.2734,0.918 -5.664,-0.879 -7.1094,-1.934 -0.2148,-0.175 -0.5273,-0.39 -0.7617,-0.547 -0.3203,0.332 -0.8203,1.375 -1.1054,1.961 -0.5938,1.25 -1.26958,2.676 -2.4688,3.801 -1.48437,1.406 -3.73047,1.277 -5.19531,-0.156 -1.46485,-1.445 -1.4375,-3.867 -0.0586,-5.391 0.20313,-0.215 0.58594,-1.008 0.83985,-1.543 1.05469,-2.218 2.83203,-5.937 7.48046,-6.379 2.6172,-0.242 4.5508,1.172 5.8203,2.102 0.2071,0.156 0.4883,0.371 0.7227,0.516 0.3594,-0.477 0.8398,-1.532 1.1445,-2.215 0.9649,-2.141 2.293,-5.071 5.3203,-6.516 l 0.4102,-0.195 c 0.7031,-0.332 1.582,-0.75 1.7578,-0.918 0,0 0.1562,-0.254 0.332,-1.199 0.7227,-4.18 1.6602,-8.586 4.336,-12.52 2.2265,-3.273 5.2343,-3.906 7.207,-4.324 1.2109,-0.254 1.8633,-0.414 2.3633,-0.863 1.7578,-1.582 2.2265,-5.789 2.5781,-8.797 0.4297,-3.633 0.0391,-6.399 -0.7227,-9.7 -0.8593,-3.816 -0.2617,-8.4956 1.8086,-13.8862 0.8203,-2.168 0.9063,-3.75 0.3203,-6.0743 -2.1484,-8.3672 -3.2226,-15.7304 -1.5351,-24.4023 0.7148,-3.5938 0.4023,-10.5195 0,-13.0586 -0.9649,-1.3047 -1.0039,-3.125 -0.0078,-4.5117 0.75,-1.0235 2.0234,-1.6211 3.2812,-1.6211 0.5078,0 1.0157,0.0976 1.4844,0.3047 5.1367,2.2265 2.7813,20.1758 2.7422,20.3515 -1.4141,7.2969 -0.5078,13.4649 1.4375,21.0547 0.9766,3.8555 0.8008,7.0391 -0.5938,10.6836 -1.4961,3.8947 -2.0039,7.1677 -1.4765,9.4607" /><path
         id="path32"
         style="fill:none;stroke:#231f20;stroke-width:1.5;stroke-linecap:butt;stroke-linejoin:miter;stroke-miterlimit:10;stroke-dasharray:none;stroke-opacity:1"
         d="m 49.6094,106.531 c 0.8984,3.965 1.3984,7.578 0.8203,12.5 -0.4688,4.153 -1.1328,9.848 -5,13.36 -2.0508,1.855 -4.2852,2.324 -5.918,2.668 -1.6601,0.351 -2.0117,0.476 -2.4804,1.152 -1.8165,2.676 -2.5196,6.043 -3.125,9.519 -0.879,5.149 -3.5352,6.399 -6.3282,7.715 l -0.3906,0.196 c -0.5273,0.246 -1.1797,1.699 -1.6602,2.754 -1.0742,2.382 -2.539,5.636 -6.2695,6.652 -3.2734,0.918 -5.664,-0.879 -7.1094,-1.934 -0.2148,-0.175 -0.5273,-0.39 -0.7617,-0.547 -0.3203,0.332 -0.8203,1.375 -1.1054,1.961 -0.5938,1.25 -1.26958,2.676 -2.4688,3.801 -1.48437,1.406 -3.73047,1.277 -5.19531,-0.156 -1.46485,-1.445 -1.4375,-3.867 -0.0586,-5.391 0.20313,-0.215 0.58594,-1.008 0.83985,-1.543 1.05469,-2.218 2.83203,-5.937 7.48046,-6.379 2.6172,-0.242 4.5508,1.172 5.8203,2.102 0.2071,0.156 0.4883,0.371 0.7227,0.516 0.3594,-0.477 0.8398,-1.532 1.1445,-2.215 0.9649,-2.141 2.293,-5.071 5.3203,-6.516 l 0.4102,-0.195 c 0.7031,-0.332 1.582,-0.75 1.7578,-0.918 0,0 0.1562,-0.254 0.332,-1.199 0.7227,-4.18 1.6602,-8.586 4.336,-12.52 2.2265,-3.273 5.2343,-3.906 7.207,-4.324 1.2109,-0.254 1.8633,-0.414 2.3633,-0.863 1.7578,-1.582 2.2265,-5.789 2.5781,-8.797 0.4297,-3.633 0.0391,-6.399 -0.7227,-9.7 -0.8593,-3.816 -0.2617,-8.4956 1.8086,-13.8862 0.8203,-2.168 0.9063,-3.75 0.3203,-6.0743 -2.1484,-8.3672 -3.2226,-15.7304 -1.5351,-24.4023 0.7148,-3.5938 0.4023,-10.5195 0,-13.0586 -0.9649,-1.3047 -1.0039,-3.125 -0.0078,-4.5117 0.75,-1.0235 2.0234,-1.6211 3.2812,-1.6211 0.5078,0 1.0157,0.0976 1.4844,0.3047 5.1367,2.2265 2.7813,20.1758 2.7422,20.3515 -1.4141,7.2969 -0.5078,13.4649 1.4375,21.0547 0.9766,3.8555 0.8008,7.0391 -0.5938,10.6836 -1.4961,3.8947 -2.0039,7.1677 -1.4765,9.4607 z" /></g></g></svg>