<?xml version="1.0" encoding="UTF-8" standalone="no"?>
<svg
   xmlns:dc="http://purl.org/dc/elements/1.1/"
   xmlns:cc="http://creativecommons.org/ns#"
   xmlns:rdf="http://www.w3.org/1999/02/22-rdf-syntax-ns#"
   xmlns:svg="http://www.w3.org/2000/svg"
   xmlns="http://www.w3.org/2000/svg"
   viewBox="0 0 39.976657 25.22388"
   height="25.223881"
   width="39.976658"
   xml:space="preserve"
   id="svg2"
   version="1.1"><metadata
     id="metadata8"><rdf:RDF><cc:Work
         rdf:about=""><dc:format>image/svg+xml</dc:format><dc:type
           rdf:resource="http://purl.org/dc/dcmitype/StillImage" /></cc:Work></rdf:RDF></metadata><defs
     id="defs6" /><g
     transform="matrix(1.3333333,0,0,-1.3333333,1.272253e-4,25.223881)"
     id="g10"><g
       transform="scale(0.1)"
       id="g12"><path
         id="path14"
         style="fill:#231f20;fill-opacity:1;fill-rule:nonzero;stroke:none"
         d="m 269.387,92.4805 v 0 c -0.957,0 -2.121,0.4218 -2.856,1.0351 -1.707,1.4375 -1.968,4.5117 -0.535,6.2305 1.387,1.6599 4.609,1.9259 6.262,0.5269 1.695,-1.4644 1.941,-4.5503 0.484,-6.2496 -0.769,-0.8984 -2.176,-1.5429 -3.355,-1.5429" /><path
         id="path16"
         style="fill:none;stroke:#231f20;stroke-width:2.5;stroke-linecap:butt;stroke-linejoin:miter;stroke-miterlimit:10;stroke-dasharray:none;stroke-opacity:1"
         d="m 269.387,92.4805 v 0 c -0.957,0 -2.121,0.4218 -2.856,1.0351 -1.707,1.4375 -1.968,4.5117 -0.535,6.2305 1.387,1.6599 4.609,1.9259 6.262,0.5269 1.695,-1.4644 1.941,-4.5503 0.484,-6.2496 -0.769,-0.8984 -2.176,-1.5429 -3.355,-1.5429 z" /><path
         id="path18"
         style="fill:#231f20;fill-opacity:1;fill-rule:nonzero;stroke:none"
         d="m 60.4023,55.1367 v 0 c -0.9492,0 -2.121,0.4219 -2.8437,1.0469 -0.832,0.6797 -1.3672,1.9531 -1.457,3.0156 -0.0743,1.0821 0.2382,2.4102 0.9375,3.2344 1.4101,1.6367 4.6289,1.8828 6.2617,0.457 1.6797,-1.4648 1.9062,-4.5117 0.4609,-6.1992 -0.7656,-0.9023 -2.1797,-1.5547 -3.3594,-1.5547" /><path
         id="path20"
         style="fill:none;stroke:#231f20;stroke-width:2.5;stroke-linecap:butt;stroke-linejoin:miter;stroke-miterlimit:10;stroke-dasharray:none;stroke-opacity:1"
         d="m 60.4023,55.1367 v 0 c -0.9492,0 -2.121,0.4219 -2.8437,1.0469 -0.832,0.6797 -1.3672,1.9531 -1.457,3.0156 -0.0743,1.0821 0.2382,2.4102 0.9375,3.2344 1.4101,1.6367 4.6289,1.8828 6.2617,0.457 1.6797,-1.4648 1.9062,-4.5117 0.4609,-6.1992 -0.7656,-0.9023 -2.1797,-1.5547 -3.3594,-1.5547 z" /><path
         id="path22"
         style="fill:#231f20;fill-opacity:1;fill-rule:nonzero;stroke:none"
         d="m 34.5117,115.352 v 0 c -0.9687,0 -2.1406,0.429 -2.8594,1.066 -1.6992,1.434 -1.9531,4.5 -0.5195,6.211 1.3789,1.641 4.582,1.922 6.2305,0.535 0.832,-0.703 1.3672,-1.953 1.457,-3.027 0.0781,-1.074 -0.2344,-2.41 -0.9375,-3.231 -0.7734,-0.898 -2.1797,-1.554 -3.3711,-1.554" /><path
         id="path24"
         style="fill:none;stroke:#231f20;stroke-width:2.5;stroke-linecap:butt;stroke-linejoin:miter;stroke-miterlimit:10;stroke-dasharray:none;stroke-opacity:1"
         d="m 34.5117,115.352 v 0 c -0.9687,0 -2.1406,0.429 -2.8594,1.066 -1.6992,1.434 -1.9531,4.5 -0.5195,6.211 1.3789,1.641 4.582,1.922 6.2305,0.535 0.832,-0.703 1.3672,-1.953 1.457,-3.027 0.0781,-1.074 -0.2344,-2.41 -0.9375,-3.231 -0.7734,-0.898 -2.1797,-1.554 -3.3711,-1.554 z" /><path
         id="path26"
         style="fill:#231f20;fill-opacity:1;fill-rule:nonzero;stroke:none"
         d="m 43.5938,159.855 c -1.629,0 -3.1758,0.997 -3.7891,2.606 -2.0313,5.391 -6.457,6.816 -6.6484,6.875 -2.1211,0.664 -3.3399,2.91 -2.7149,5.019 0.6328,2.141 2.832,3.34 4.9609,2.774 0.3282,-0.098 8.4532,-2.481 11.9805,-11.797 0.7891,-2.09 -0.2656,-4.414 -2.3515,-5.215 -0.4727,-0.183 -0.9571,-0.262 -1.4375,-0.262" /><path
         id="path28"
         style="fill:none;stroke:#231f20;stroke-width:2.5;stroke-linecap:butt;stroke-linejoin:miter;stroke-miterlimit:10;stroke-dasharray:none;stroke-opacity:1"
         d="m 43.5938,159.855 c -1.629,0 -3.1758,0.997 -3.7891,2.606 -2.0313,5.391 -6.457,6.816 -6.6484,6.875 -2.1211,0.664 -3.3399,2.91 -2.7149,5.019 0.6328,2.141 2.832,3.34 4.9609,2.774 0.3282,-0.098 8.4532,-2.481 11.9805,-11.797 0.7891,-2.09 -0.2656,-4.414 -2.3515,-5.215 -0.4727,-0.183 -0.9571,-0.262 -1.4375,-0.262 z" /><path
         id="path30"
         style="fill:#231f20;fill-opacity:1;fill-rule:nonzero;stroke:none"
         d="m 144.316,1.25 -9.035,0.01172 c -8.633,0 -18.34,2.10547 -27.722,4.13672 C 99.0156,7.24609 90.9375,9.00391 84.5391,9.00391 L 82.3047,8.98438 c -46.4727,0 -51.8359,31.54292 -51.8359,55.27342 0,23.4961 15.246,52.1682 58.2109,55.7032 5.6836,0.469 13.4493,2.121 21.6643,3.859 10.254,2.176 20.855,4.434 29.344,4.813 69.414,3.105 94.121,-33.3791 94.121,-64.3752 0,-23.5664 -4.754,-49.1094 -40.071,-59.85546 C 184.563,1.60938 162.512,1.25 144.316,1.25 M 84.5391,17.0898 c 7.2656,0 15.7659,-1.8242 24.7379,-3.7695 8.977,-1.9531 18.235,-3.96483 26.004,-3.96483 l 9.035,-0.00781 c 9.375,0 37.864,0 47.071,2.80074 30.168,9.1797 34.328,30.4688 34.328,52.1094 0,34.2969 -30.637,56.4452 -78.039,56.4452 -2.481,0 -5.031,-0.058 -7.625,-0.156 -7.824,-0.352 -18.086,-2.539 -28.031,-4.649 -8.473,-1.796 -16.4731,-3.496 -22.6841,-4.003 -37.4726,-3.086 -50.7695,-27.5864 -50.7695,-47.6372 0,-23.3281 5.1953,-47.1797 43.7383,-47.1797 l 2.2344,0.0117" /><path
         id="path32"
         style="fill:none;stroke:#231f20;stroke-width:2.5;stroke-linecap:butt;stroke-linejoin:miter;stroke-miterlimit:10;stroke-dasharray:none;stroke-opacity:1"
         d="m 144.316,1.25 -9.035,0.01172 c -8.633,0 -18.34,2.10547 -27.722,4.13672 C 99.0156,7.24609 90.9375,9.00391 84.5391,9.00391 L 82.3047,8.98438 c -46.4727,0 -51.8359,31.54292 -51.8359,55.27342 0,23.4961 15.246,52.1682 58.2109,55.7032 5.6836,0.469 13.4493,2.121 21.6643,3.859 10.254,2.176 20.855,4.434 29.344,4.813 69.414,3.105 94.121,-33.3791 94.121,-64.3752 0,-23.5664 -4.754,-49.1094 -40.071,-59.85546 C 184.563,1.60938 162.512,1.25 144.316,1.25 Z M 84.5391,17.0898 c 7.2656,0 15.7659,-1.8242 24.7379,-3.7695 8.977,-1.9531 18.235,-3.96483 26.004,-3.96483 l 9.035,-0.00781 c 9.375,0 37.864,0 47.071,2.80074 30.168,9.1797 34.328,30.4688 34.328,52.1094 0,34.2969 -30.637,56.4452 -78.039,56.4452 -2.481,0 -5.031,-0.058 -7.625,-0.156 -7.824,-0.352 -18.086,-2.539 -28.031,-4.649 -8.473,-1.796 -16.4731,-3.496 -22.6841,-4.003 -37.4726,-3.086 -50.7695,-27.5864 -50.7695,-47.6372 0,-23.3281 5.1953,-47.1797 43.7383,-47.1797 z" /><path
         id="path34"
         style="fill:#231f20;fill-opacity:1;fill-rule:nonzero;stroke:none"
         d="m 37.3242,76.8477 c -0.3008,0 -0.6133,0.039 -0.9453,0.1054 -19.0351,4.5313 -30.73437,16.086 -33.80859,33.4379 -2.011716,11.152 -5.99609,48.879 26.19139,65.39 8.4571,4.348 32.3399,8.594 45.1719,10.871 l 3.1641,0.567 c 7.375,1.336 18.2265,0.496 28.7153,-0.324 9.292,-0.723 18.906,-1.465 24.097,-0.43 17.324,3.379 40.195,0.246 50.813,-33.965 0.664,-2.129 -0.528,-4.402 -2.664,-5.059 -2.141,-0.671 -4.407,0.528 -5.063,2.657 -7.207,23.183 -20.762,32.48 -41.519,28.41 -6.282,-1.223 -15.997,-0.481 -26.289,0.312 -9.9732,0.782 -20.2935,1.571 -26.6528,0.43 l -3.1836,-0.578 C 63.8203,176.621 39.8359,172.363 32.4688,168.574 5.21484,154.602 8.78125,121.582 10.5352,111.809 c 2.5,-14.1137 11.8359,-23.1957 27.7265,-26.9731 2.1797,-0.5195 3.5235,-2.6953 3.0196,-4.8632 -0.4493,-1.875 -2.1133,-3.125 -3.9571,-3.125" /><path
         id="path36"
         style="fill:none;stroke:#231f20;stroke-width:2.5;stroke-linecap:butt;stroke-linejoin:miter;stroke-miterlimit:10;stroke-dasharray:none;stroke-opacity:1"
         d="m 37.3242,76.8477 c -0.3008,0 -0.6133,0.039 -0.9453,0.1054 -19.0351,4.5313 -30.73437,16.086 -33.80859,33.4379 -2.011716,11.152 -5.99609,48.879 26.19139,65.39 8.4571,4.348 32.3399,8.594 45.1719,10.871 l 3.1641,0.567 c 7.375,1.336 18.2265,0.496 28.7153,-0.324 9.292,-0.723 18.906,-1.465 24.097,-0.43 17.324,3.379 40.195,0.246 50.813,-33.965 0.664,-2.129 -0.528,-4.402 -2.664,-5.059 -2.141,-0.671 -4.407,0.528 -5.063,2.657 -7.207,23.183 -20.762,32.48 -41.519,28.41 -6.282,-1.223 -15.997,-0.481 -26.289,0.312 -9.9732,0.782 -20.2935,1.571 -26.6528,0.43 l -3.1836,-0.578 C 63.8203,176.621 39.8359,172.363 32.4688,168.574 5.21484,154.602 8.78125,121.582 10.5352,111.809 c 2.5,-14.1137 11.8359,-23.1957 27.7265,-26.9731 2.1797,-0.5195 3.5235,-2.6953 3.0196,-4.8632 -0.4493,-1.875 -2.1133,-3.125 -3.9571,-3.125 z" /><path
         id="path38"
         style="fill:#231f20;fill-opacity:1;fill-rule:nonzero;stroke:none"
         d="m 229.727,58.0469 c -1.907,0 -3.606,1.3476 -3.973,3.3008 -0.402,2.1992 1.031,4.3164 3.23,4.7265 5.86,1.1055 11.496,2.1172 15.989,2.4922 33.59,2.5078 45.507,22.5469 45.507,38.9336 0,9.512 -1.027,21.418 -9.015,29.289 -6.485,6.375 -17.063,9.422 -31.531,9.305 -6.543,-0.125 -14.485,1.476 -22.778,3.136 -8.152,1.629 -16.597,3.321 -23.672,3.29 -21.082,-0.059 -58.55,-16.446 -74.238,-32.45 -1.558,-1.601 -4.129,-1.621 -5.723,-0.07 -1.597,1.563 -1.621,4.141 -0.054,5.723 17.183,17.539 56.804,34.836 79.988,34.894 8.098,0.164 16.738,-1.738 25.293,-3.449 7.859,-1.57 15.32,-2.969 21.063,-2.988 16.574,0.371 29.25,-3.653 37.335,-11.621 10.247,-10.098 11.426,-24.844 11.426,-35.059 0,-19.8516 -13.879,-44.082 -52.976,-47.0117 -4.075,-0.332 -9.477,-1.3086 -15.11,-2.375 -0.254,-0.0469 -0.508,-0.0664 -0.761,-0.0664" /><path
         id="path40"
         style="fill:none;stroke:#231f20;stroke-width:2.5;stroke-linecap:butt;stroke-linejoin:miter;stroke-miterlimit:10;stroke-dasharray:none;stroke-opacity:1"
         d="m 229.727,58.0469 c -1.907,0 -3.606,1.3476 -3.973,3.3008 -0.402,2.1992 1.031,4.3164 3.23,4.7265 5.86,1.1055 11.496,2.1172 15.989,2.4922 33.59,2.5078 45.507,22.5469 45.507,38.9336 0,9.512 -1.027,21.418 -9.015,29.289 -6.485,6.375 -17.063,9.422 -31.531,9.305 -6.543,-0.125 -14.485,1.476 -22.778,3.136 -8.152,1.629 -16.597,3.321 -23.672,3.29 -21.082,-0.059 -58.55,-16.446 -74.238,-32.45 -1.558,-1.601 -4.129,-1.621 -5.723,-0.07 -1.597,1.563 -1.621,4.141 -0.054,5.723 17.183,17.539 56.804,34.836 79.988,34.894 8.098,0.164 16.738,-1.738 25.293,-3.449 7.859,-1.57 15.32,-2.969 21.063,-2.988 16.574,0.371 29.25,-3.653 37.335,-11.621 10.247,-10.098 11.426,-24.844 11.426,-35.059 0,-19.8516 -13.879,-44.082 -52.976,-47.0117 -4.075,-0.332 -9.477,-1.3086 -15.11,-2.375 -0.254,-0.0469 -0.508,-0.0664 -0.761,-0.0664 z" /><path
         id="path42"
         style="fill:#231f20;fill-opacity:1;fill-rule:nonzero;stroke:none"
         d="m 193.816,32.4805 v 0 c -0.957,0 -2.117,0.4179 -2.847,1.0351 -0.824,0.6953 -1.36,1.9532 -1.449,3.0391 -0.086,1.0625 0.238,2.3906 0.929,3.2109 1.406,1.6407 4.61,1.8946 6.239,0.5078 1.691,-1.457 1.945,-4.5117 0.507,-6.2109 -0.757,-0.918 -2.183,-1.582 -3.379,-1.582" /><path
         id="path44"
         style="fill:none;stroke:#231f20;stroke-width:2.5;stroke-linecap:butt;stroke-linejoin:miter;stroke-miterlimit:10;stroke-dasharray:none;stroke-opacity:1"
         d="m 193.816,32.4805 v 0 c -0.957,0 -2.117,0.4179 -2.847,1.0351 -0.824,0.6953 -1.36,1.9532 -1.449,3.0391 -0.086,1.0625 0.238,2.3906 0.929,3.2109 1.406,1.6407 4.61,1.8946 6.239,0.5078 1.691,-1.457 1.945,-4.5117 0.507,-6.2109 -0.757,-0.918 -2.183,-1.582 -3.379,-1.582 z" /><path
         id="path46"
         style="fill:#231f20;fill-opacity:1;fill-rule:nonzero;stroke:none"
         d="m 133.574,57.6758 v 0 c -0.969,0 -2.136,0.4297 -2.871,1.0547 -1.699,1.457 -1.941,4.5429 -0.488,6.2304 1.394,1.6329 4.57,1.8946 6.211,0.5196 1.711,-1.4375 1.965,-4.5117 0.539,-6.2227 -0.774,-0.9297 -2.199,-1.582 -3.391,-1.582" /><path
         id="path48"
         style="fill:none;stroke:#231f20;stroke-width:2.5;stroke-linecap:butt;stroke-linejoin:miter;stroke-miterlimit:10;stroke-dasharray:none;stroke-opacity:1"
         d="m 133.574,57.6758 v 0 c -0.969,0 -2.136,0.4297 -2.871,1.0547 -1.699,1.457 -1.941,4.5429 -0.488,6.2304 1.394,1.6329 4.57,1.8946 6.211,0.5196 1.711,-1.4375 1.965,-4.5117 0.539,-6.2227 -0.774,-0.9297 -2.199,-1.582 -3.391,-1.582 z" /><path
         id="path50"
         style="fill:#231f20;fill-opacity:1;fill-rule:nonzero;stroke:none"
         d="m 171.438,92.8516 v 0 c -0.977,0 -2.161,0.4492 -2.903,1.0937 -1.672,1.457 -1.887,4.5117 -0.461,6.1917 1.399,1.621 4.571,1.894 6.211,0.527 0.832,-0.7031 1.367,-1.9609 1.457,-3.0273 0.086,-1.0937 -0.234,-2.4219 -0.937,-3.2422 -0.774,-0.8984 -2.176,-1.5429 -3.367,-1.5429" /><path
         id="path52"
         style="fill:none;stroke:#231f20;stroke-width:2.5;stroke-linecap:butt;stroke-linejoin:miter;stroke-miterlimit:10;stroke-dasharray:none;stroke-opacity:1"
         d="m 171.438,92.8516 v 0 c -0.977,0 -2.161,0.4492 -2.903,1.0937 -1.672,1.457 -1.887,4.5117 -0.461,6.1917 1.399,1.621 4.571,1.894 6.211,0.527 0.832,-0.7031 1.367,-1.9609 1.457,-3.0273 0.086,-1.0937 -0.234,-2.4219 -0.937,-3.2422 -0.774,-0.8984 -2.176,-1.5429 -3.367,-1.5429 z" /><path
         id="path54"
         style="fill:#231f20;fill-opacity:1;fill-rule:nonzero;stroke:none"
         d="m 241.543,120.332 v 0 c -0.957,0 -2.117,0.43 -2.852,1.047 -0.82,0.691 -1.355,1.941 -1.445,3.035 -0.09,1.066 0.234,2.395 0.938,3.215 1.394,1.641 4.597,1.883 6.23,0.488 1.691,-1.437 1.941,-4.504 0.52,-6.203 -0.774,-0.918 -2.2,-1.582 -3.391,-1.582" /><path
         id="path56"
         style="fill:none;stroke:#231f20;stroke-width:2.5;stroke-linecap:butt;stroke-linejoin:miter;stroke-miterlimit:10;stroke-dasharray:none;stroke-opacity:1"
         d="m 241.543,120.332 v 0 c -0.957,0 -2.117,0.43 -2.852,1.047 -0.82,0.691 -1.355,1.941 -1.445,3.035 -0.09,1.066 0.234,2.395 0.938,3.215 1.394,1.641 4.597,1.883 6.23,0.488 1.691,-1.437 1.941,-4.504 0.52,-6.203 -0.774,-0.918 -2.2,-1.582 -3.391,-1.582 z" /><path
         id="path58"
         style="fill:#231f20;fill-opacity:1;fill-rule:nonzero;stroke:none"
         d="m 88.2422,157.824 v 0 c -0.9649,0 -2.1211,0.418 -2.8516,1.043 -0.8203,0.684 -1.3554,1.946 -1.457,3.02 -0.0781,1.082 0.2461,2.41 0.9375,3.23 1.4102,1.641 4.6406,1.887 6.2734,0.449 1.668,-1.453 1.8907,-4.5 0.4571,-6.191 -0.7696,-0.898 -2.1797,-1.551 -3.3594,-1.551" /><path
         id="path60"
         style="fill:none;stroke:#231f20;stroke-width:2.5;stroke-linecap:butt;stroke-linejoin:miter;stroke-miterlimit:10;stroke-dasharray:none;stroke-opacity:1"
         d="m 88.2422,157.824 v 0 c -0.9649,0 -2.1211,0.418 -2.8516,1.043 -0.8203,0.684 -1.3554,1.946 -1.457,3.02 -0.0781,1.082 0.2461,2.41 0.9375,3.23 1.4102,1.641 4.6406,1.887 6.2734,0.449 1.668,-1.453 1.8907,-4.5 0.4571,-6.191 -0.7696,-0.898 -2.1797,-1.551 -3.3594,-1.551 z" /><path
         id="path62"
         style="fill:#231f20;fill-opacity:1;fill-rule:nonzero;stroke:none"
         d="m 111.426,94.707 c -1.629,0 -3.172,1.0078 -3.789,2.6172 -4.461,11.7888 -14.3284,14.6798 -14.4222,14.7068 -2.1484,0.606 -3.4101,2.844 -2.8125,4.992 0.6133,2.149 2.8516,3.418 5,2.801 0.5665,-0.156 13.9137,-4.07 19.8127,-19.629 0.793,-2.0895 -0.266,-4.4216 -2.356,-5.2223 -0.464,-0.168 -0.957,-0.2657 -1.433,-0.2657" /><path
         id="path64"
         style="fill:none;stroke:#231f20;stroke-width:2.5;stroke-linecap:butt;stroke-linejoin:miter;stroke-miterlimit:10;stroke-dasharray:none;stroke-opacity:1"
         d="m 111.426,94.707 c -1.629,0 -3.172,1.0078 -3.789,2.6172 -4.461,11.7888 -14.3284,14.6798 -14.4222,14.7068 -2.1484,0.606 -3.4101,2.844 -2.8125,4.992 0.6133,2.149 2.8516,3.418 5,2.801 0.5665,-0.156 13.9137,-4.07 19.8127,-19.629 0.793,-2.0895 -0.266,-4.4216 -2.356,-5.2223 -0.464,-0.168 -0.957,-0.2657 -1.433,-0.2657 z" /><path
         id="path66"
         style="fill:#231f20;fill-opacity:1;fill-rule:nonzero;stroke:none"
         d="m 212.324,142.043 c -1.633,0 -3.176,1.004 -3.789,2.625 -2.402,6.328 -7.695,7.988 -7.746,8.008 -2.156,0.597 -3.406,2.832 -2.801,4.98 0.598,2.16 2.832,3.43 4.992,2.813 0.379,-0.106 9.254,-2.715 13.133,-12.949 0.789,-2.09 -0.261,-4.434 -2.351,-5.215 -0.481,-0.176 -0.957,-0.262 -1.438,-0.262" /><path
         id="path68"
         style="fill:none;stroke:#231f20;stroke-width:2.5;stroke-linecap:butt;stroke-linejoin:miter;stroke-miterlimit:10;stroke-dasharray:none;stroke-opacity:1"
         d="m 212.324,142.043 c -1.633,0 -3.176,1.004 -3.789,2.625 -2.402,6.328 -7.695,7.988 -7.746,8.008 -2.156,0.597 -3.406,2.832 -2.801,4.98 0.598,2.16 2.832,3.43 4.992,2.813 0.379,-0.106 9.254,-2.715 13.133,-12.949 0.789,-2.09 -0.261,-4.434 -2.351,-5.215 -0.481,-0.176 -0.957,-0.262 -1.438,-0.262 z" /><path
         id="path70"
         style="fill:#231f20;fill-opacity:1;fill-rule:nonzero;stroke:none"
         d="m 126.355,1.94141 c -2.167,0 -3.96,1.71093 -4.042,3.88672 -0.086,2.23828 1.664,4.12109 3.871,4.21097 7.539,0.3047 11.129,5.2422 11.265,5.4492 1.313,1.8281 3.821,2.2656 5.637,1.0156 1.824,-1.2695 2.297,-3.7383 1.062,-5.5859 -0.234,-0.3438 -5.894,-8.49612 -17.617,-8.96487 -0.054,-0.01172 -0.125,-0.01172 -0.176,-0.01172" /><path
         id="path72"
         style="fill:none;stroke:#231f20;stroke-width:2.5;stroke-linecap:butt;stroke-linejoin:miter;stroke-miterlimit:10;stroke-dasharray:none;stroke-opacity:1"
         d="m 126.355,1.94141 c -2.167,0 -3.96,1.71093 -4.042,3.88672 -0.086,2.23828 1.664,4.12109 3.871,4.21097 7.539,0.3047 11.129,5.2422 11.265,5.4492 1.313,1.8281 3.821,2.2656 5.637,1.0156 1.824,-1.2695 2.297,-3.7383 1.062,-5.5859 -0.234,-0.3438 -5.894,-8.49612 -17.617,-8.96487 -0.054,-0.01172 -0.125,-0.01172 -0.176,-0.01172 z" /></g></g></svg>